<?xml version="1.0" standalone="no"?>
<!DOCTYPE svg PUBLIC "-//W3C//DTD SVG 1.1//EN" "http://www.w3.org/Graphics/SVG/1.1/DTD/svg11.dtd" >
<svg xmlns="http://www.w3.org/2000/svg" xmlns:xlink="http://www.w3.org/1999/xlink" version="1.1">
<metadata>
Created by FontForge 20200427 at Wed Aug 26 19:50:34 2020
 By www
Copyright (c) 2020, Gartype Studio
</metadata>
<defs>
<font id="ChunkyRosieDemo" horiz-adv-x="300" >
  <font-face 
    font-family="Chunky Rosie Demo"
    font-weight="400"
    font-stretch="normal"
    units-per-em="1000"
    panose-1="2 0 5 3 0 0 0 0 0 0"
    ascent="800"
    descent="-200"
    x-height="664"
    cap-height="868"
    bbox="-0.917241 -203.513 1086.12 1025"
    underline-thickness="50"
    underline-position="-150"
    unicode-range="U+0020-2212"
  />
<missing-glyph horiz-adv-x="500" 
d="M50 0v533h400v-533h-400zM100 50h300v433h-300v-433z" />
    <glyph glyph-name=".notdef" horiz-adv-x="500" 
d="M50 0v533h400v-533h-400zM100 50h300v433h-300v-433z" />
    <glyph glyph-name=".null" horiz-adv-x="0" 
 />
    <glyph glyph-name="nonmarkingreturn" horiz-adv-x="333" 
 />
    <glyph glyph-name="space" unicode=" " 
 />
    <glyph glyph-name="exclam" unicode="!" horiz-adv-x="186" 
d="M84 119q23 2 41 -9.5t26 -29.5t4.5 -40t-20.5 -39q-18 -18 -32 -20t-41 9t-33 41t10 57t45 31zM69 879q20 -1 41 -24q16 -17 22 -48t13 -134q11 -158 11 -302q0 -97 -3.5 -124t-18.5 -42q-20 -20 -36.5 -20t-42.5 20q-59 47 -55 436q1 80 2 114t4 60t7 32.5t13 13.5
q24 20 43 18z" />
    <glyph glyph-name="quotedbl" unicode="&#x22;" horiz-adv-x="385" 
d="M290 843q33 0 48 -28.5t17 -95.5q1 -49 -3 -64.5t-20 -28.5q-23 -19 -38.5 -18.5t-39.5 22.5q-23 19 -32 59.5t0 85.5q13 68 68 68zM72 843q33 0 48 -28.5t17 -95.5q1 -49 -2.5 -64.5t-20.5 -28.5q-23 -19 -38.5 -18.5t-39.5 22.5q-23 19 -31.5 59.5t-0.5 85.5
q13 68 68 68z" />
    <glyph glyph-name="numbersign" unicode="#" horiz-adv-x="918" 
d="M551 478h-63q-16 0 -72 -7l-56 -6l-10 -54l-11 -53h76q89 0 106.5 3.5t22.5 21.5q7 24 7 60v35zM697 902q17 -1 40 -20q9 -7 12.5 -11.5t6.5 -10.5t2 -21.5l-2 -31t-5 -53.5q-12 -107 -7.5 -115.5t39.5 -8.5q37 0 60.5 -18t23.5 -47q0 -34 -20.5 -49.5t-66.5 -15.5
q-39 0 -46.5 -5.5t-12.5 -35.5q-3 -20 -4.5 -29t-2 -21t0 -16t4.5 -10.5t7 -8t13.5 -4.5t18 -3.5t24.5 -2.5q56 -7 81.5 -22.5t25.5 -43.5q0 -29 -29.5 -47t-92.5 -28l-79 -12l-24 -103q-24 -103 -55 -130.5t-75 15.5q-20 21 -21.5 41.5t11.5 124.5v1l4 35h-134h-87l-14 -94
q-14 -92 -42.5 -121.5t-72.5 2.5q-14 10 -18.5 32.5t-8.5 89.5l-5 106l-55 14q-66 17 -85 54t19 76q22 21 59 25.5t54 -12.5q24 -24 37 36q2 10 3 22l8 50l-68 5q-41 3 -58.5 9t-29.5 21q-19 24 -19 39t19 39q14 17 32.5 22t76.5 8l87 4l12 54q11 54 11 84t23 59t46 29
q24 0 50 -17q17 -13 20.5 -29.5t0.5 -81.5l-4 -92l81 7q17 1 32.5 3t24 2.5t18.5 0.5h41l25 106q20 84 41 121t49 34z" />
    <glyph glyph-name="dollar" unicode="$" horiz-adv-x="559" 
d="M240.5 927q36.5 3 56.5 -16q13 -14 26 -53.5t13 -66.5q0 -14 11 -21t43 -16q50 -13 79.5 -41t29.5 -63q0 -31 -20.5 -52t-48 -20.5t-44.5 24.5q-10 15 -24 18.5t-56 0.5q-50 -4 -93 -26.5t-38 -41.5q2 -5 42 -28t95 -50.5t103.5 -56t62.5 -41.5q42 -40 50.5 -95.5
t-17.5 -106.5t-80 -80q-27 -14 -31.5 -23.5t-1.5 -37.5q8 -58 -11 -94t-57 -36q-27 0 -47 20q-8 9 -18 31t-16 45l-13 55l-74 22q-60 19 -101 50t-41 59q0 9 7 22.5t16 23.5q19 18 38 17t81 -24q43 -16 103.5 -12.5t79.5 22.5q12 11 -5 23q-16 12 -92 47q-114 54 -158 87
q-58 42 -80.5 109.5t4.5 119.5q17 32 61.5 71t79.5 51q23 8 30 16t4 21q-11 60 -11.5 82t11.5 40q15 22 51.5 25z" />
    <glyph glyph-name="percent" unicode="%" horiz-adv-x="1116" 
d="M874 240q-16 2 -26 -17t-11 -55q0 -15 6.5 -20t24.5 -5q13 0 27.5 6t21.5 14q13 14 12.5 21.5t-16.5 27.5q-15 19 -29 26q-5 2 -10 2zM857 383q126 0 196 -104q25 -37 30 -55.5t2 -58.5q-4 -57 -29.5 -94t-81.5 -64q-101 -50 -197 -7q-47 21 -65.5 60t-14.5 106
q5 70 31 123q30 62 52 78t77 16zM212 722q-12 1 -37 -9q-36 -16 -30 -32.5t6 -26.5q0 -16 30 -27t65.5 -10t49.5 15q13 13 0 35t-44 39q-28 15 -40 16zM205 858q23 1 48 -4q74 -14 136 -67t74 -118q12 -64 -32 -123t-123 -83q-46 -14 -72 -13.5t-71 14.5q-67 21 -111 69
t-52 106t19 120q17 35 46 54.5t92 37.5q21 6 46 7zM672 860q26 -1 46.5 -15.5t20.5 -36.5q0 -44 -99.5 -412.5t-123.5 -416.5q-19 -36 -48 -41.5t-55 20.5q-22 22 -22 41q0 18 20.5 137.5t33.5 175.5q29 129 93.5 315t89.5 216q11 13 31 16q7 1 13 1z" />
    <glyph glyph-name="ampersand" unicode="&#x26;" horiz-adv-x="661" 
d="M215.5 284q-13.5 8 -20.5 -2q-10 -17 -16.5 -52.5t-0.5 -50.5q9 -24 63.5 -29t73.5 17q11 13 -49 72q-37 37 -50.5 45zM278 720.5q-29 2.5 -54 -14.5t-33 -50q-7 -26 6 -67t39 -76q24 -32 39 -24.5t45 68.5q28 56 28 85q0 34 -20.5 55t-49.5 23.5zM236 884.5
q54 6.5 105.5 -12t91.5 -61.5q74 -80 63 -182t-106 -210q-30 -34 -33 -43t11 -22q14 -12 20 -11.5t21 16.5q48 54 129 54q30 0 43 -5.5t24 -21.5q19 -29 10 -55t-44 -43q-16 -7 -32.5 -20.5t-23.5 -25.5q-14 -20 -7.5 -31.5t56.5 -58.5q67 -62 67 -86q0 -21 -21.5 -44
t-42.5 -23q-15 0 -60 30t-56 47q-7 12 -52 -31q-56 -53 -127 -65t-142 20t-100.5 76t-29.5 116q0 53 20 104.5t53 86.5q22 22 23 30t-13 30q-34 52 -45 89.5t-11 98.5q0 52 5.5 76t25.5 57q30 52 77 83t101 37.5z" />
    <glyph glyph-name="quotesingle" unicode="'" horiz-adv-x="175" 
d="M76 840q35 0 51 -30.5t18 -100.5q1 -52 -3 -68.5t-21 -30.5q-25 -20 -41 -19t-42 23q-24 21 -33.5 63.5t-0.5 90.5q14 72 72 72z" />
    <glyph glyph-name="parenleft" unicode="(" horiz-adv-x="342" 
d="M189.5 892q32.5 -4 48.5 -32q12 -20 10 -31t-22 -40q-63 -92 -70.5 -265.5t45.5 -290.5q26 -58 73 -124q33 -47 37 -60.5t-7 -34.5q-9 -16 -21.5 -23t-34.5 -9q-26 -2 -41 7t-53 51q-81 91 -117.5 192t-36.5 232q0 129 37 248t90 161q30 23 62.5 19z" />
    <glyph glyph-name="parenright" unicode=")" horiz-adv-x="331" 
d="M80 935q48 -13 99 -101.5t92 -233.5q24 -83 29 -197t-11 -191q-22 -101 -60 -171.5t-72 -70.5q-12 0 -36 17q-22 16 -22.5 46.5t20.5 109.5q19 71 19.5 173.5t-13 200.5t-40.5 182.5t-60 120.5q-49 52 -4 97q27 27 59 18z" />
    <glyph glyph-name="asterisk" unicode="*" horiz-adv-x="386" 
d="M185 891q28 0 45 -25t17 -64q0 -29 4 -33.5t22 2.5q27 10 45.5 1t28.5 -26.5t5.5 -43.5t-22.5 -48q-26 -30 -26 -40t25 -30q25 -19 27 -49.5t-20 -49.5q-19 -18 -42 -17t-56 21l-36 22l-32 -28q-62 -51 -108 -6q-21 22 -19.5 39.5t26.5 47.5q29 34 25 37q-3 2 -45 33
q-16 13 -30 27.5t-17 23.5q-11 34 21.5 61t68.5 13q18 -6 21.5 0t3.5 43q0 89 68 89z" />
    <glyph glyph-name="plus" unicode="+" horiz-adv-x="481" 
d="M224 622.5q16 -2.5 39 -25.5q16 -16 21.5 -32.5t5.5 -48.5v-55h55q32 0 48.5 -5.5t32.5 -21.5q38 -38 19 -70t-89 -46l-63 -12l-7 -76q-5 -64 -22 -85.5t-51 -21.5q-30 0 -43 9q-15 9 -24 37.5t-9 69.5q0 42 -20 63t-45 21q-29 0 -50.5 19t-21.5 45q0 29 20.5 47.5
t52.5 18.5q17 0 24.5 1t19.5 7t19.5 20.5t11.5 39.5q14 71 36 87q24 17 40 14.5z" />
    <glyph glyph-name="comma" unicode="," horiz-adv-x="254" 
d="M161 207q64 0 63 -117q0 -63 -19 -113t-63 -104q-24 -29 -38.5 -38t-37.5 -9q-21 0 -33 6t-22 22q-14 20 -9.5 37t41.5 89q51 98 51 145q0 38 18 60t49 22z" />
    <glyph glyph-name="hyphen" unicode="-" horiz-adv-x="397" 
d="M65 409q23 3 125 -1q140 -6 159 -22q17 -15 18.5 -39t-12.5 -44q-21 -28 -101.5 -35.5t-166.5 10.5q-64 14 -81.5 44t18.5 66q11 11 18.5 15.5t22.5 5.5z" />
    <glyph glyph-name="period" unicode="." horiz-adv-x="151" 
d="M82 126q30 -11 38 -45t-18 -60q-16 -14 -37.5 -17t-36.5 7q-31 21 -27.5 59t38.5 54q22 10 43 2z" />
    <glyph glyph-name="slash" unicode="/" horiz-adv-x="558" 
d="M478 869.5q31 -8.5 43 -30.5q11 -20 5.5 -43.5t-42.5 -114.5q-123 -303 -270 -537q-93 -147 -110 -166q-16 -18 -43.5 -18.5t-44.5 16.5q-24 25 -10.5 74t80.5 176q88 164 209 397q122 234 133 242q19 13 50 4.5z" />
    <glyph glyph-name="zero" unicode="0" 
 />
    <glyph glyph-name="one" unicode="1" 
 />
    <glyph glyph-name="two" unicode="2" 
 />
    <glyph glyph-name="three" unicode="3" 
 />
    <glyph glyph-name="four" unicode="4" 
 />
    <glyph glyph-name="five" unicode="5" 
 />
    <glyph glyph-name="six" unicode="6" 
 />
    <glyph glyph-name="seven" unicode="7" 
 />
    <glyph glyph-name="eight" unicode="8" 
 />
    <glyph glyph-name="nine" unicode="9" 
 />
    <glyph glyph-name="colon" unicode=":" horiz-adv-x="151" 
d="M82 554q30 -12 38 -45.5t-18 -59.5q-16 -14 -37.5 -17t-36.5 7q-31 21 -27.5 59t38.5 54q22 10 43 2zM82 321q30 -12 38 -45.5t-18 -59.5q-16 -14 -37.5 -17t-36.5 7q-31 21 -27.5 59t38.5 54q22 10 43 2z" />
    <glyph glyph-name="semicolon" unicode=";" horiz-adv-x="254" 
d="M161 350q64 0 63 -117q0 -63 -19 -113t-63 -104q-24 -29 -38.5 -38t-37.5 -9q-21 0 -33 6t-22 22q-14 20 -9.5 37t41.5 89q51 98 51 145q0 38 18 60t49 22zM147 554q30 -12 38.5 -45.5t-18.5 -59.5q-16 -14 -37 -17t-37 7q-31 21 -27.5 59t39.5 54q21 10 42 2z" />
    <glyph glyph-name="less" unicode="&#x3c;" horiz-adv-x="426" 
d="M307 629q22 0 39 -22t17 -51q0 -21 -17.5 -43.5t-75.5 -77.5q-38 -37 -63.5 -66t-22.5 -33q6 -11 90 -78q77 -62 99.5 -86.5t22.5 -48t-20.5 -42t-45.5 -18.5q-12 0 -46.5 17t-72.5 40q-246 151 -205 269q7 21 73.5 80t137.5 109.5t90 50.5z" />
    <glyph glyph-name="equal" unicode="=" horiz-adv-x="472" 
d="M339 272q41 0 56 -4q26 -6 39 -29t7.5 -48.5t-27.5 -37.5q-21 -11 -155.5 -27t-168.5 -23q-21 -4 -33.5 0t-29.5 21q-38 39 -22 71t83 51q36 10 113.5 18t137.5 8zM129 512q31 0 79 -2q93 -2 126 -6.5t51 -17.5q38 -30 23 -66t-71 -49q-51 -12 -124.5 -10.5t-120.5 15.5
q-63 19 -80.5 54.5t21.5 64.5q13 10 32 13.5t64 3.5z" />
    <glyph glyph-name="greater" unicode="&#x3e;" horiz-adv-x="426" 
d="M89 629q19 0 90 -50.5t137.5 -109.5t74.5 -80q41 -118 -206 -269q-37 -23 -72 -40t-46 -17q-26 0 -46.5 18.5t-20.5 42t22.5 48t99.5 86.5q84 67 90 78q3 4 -22.5 33t-63.5 66q-58 55 -75.5 77.5t-17.5 43.5q0 29 17 51t39 22z" />
    <glyph glyph-name="question" unicode="?" horiz-adv-x="505" 
d="M211.5 107q19.5 -1 37.5 -20q32 -31 15 -67t-62 -36q-31 0 -43 12q-16 16 -12.5 49t22.5 47q23 16 42.5 15zM190 848q15 0 41 -2q173 -11 228 -144q59 -140 -105 -336q-26 -30 -48 -63.5t-27 -48.5q-17 -53 -47.5 -69.5t-58.5 11.5q-14 14 -16 58t10 77q11 29 79 128
q60 88 72 136t-18 77q-25 23 -67 32.5t-74.5 1t-32.5 -31.5q0 -19 -20.5 -35.5t-43.5 -16.5q-29 0 -46.5 23t-16 56.5t22.5 63.5q9 12 32 29.5t47 28.5q29 14 46.5 19.5t42.5 5.5z" />
    <glyph glyph-name="at" unicode="@" horiz-adv-x="1017" 
d="M528 452q-13 1 -29 -2q-37 -5 -57 -21q-51 -40 -10 -64q18 -10 32 -10.5t39 9.5q20 7 36.5 39t6.5 42q-5 5 -18 7zM544 925q26 0 53 -4q71 -10 148 -41q63 -25 115.5 -78t83 -118.5t41 -139.5t-10.5 -140q-15 -54 -51 -96t-79 -62.5t-90 -19t-83 29.5q-28 22 -35 10
q-23 -37 -115 -50t-148 14q-52 24 -78.5 72t-20.5 102.5t44 97.5q42 48 90.5 63.5t155.5 14.5h46.5t35 -2t26.5 -4t18 -8t13.5 -11.5t8 -17.5t6.5 -23t4 -31q7 -46 20.5 -66.5t31.5 -13.5q26 10 35 49t-2 90t-39 92q-35 53 -88 78.5t-138 30.5q-57 3 -80.5 -0.5t-61.5 -22.5
q-78 -39 -125.5 -81.5t-77.5 -99.5q-23 -45 -29 -68.5t-3 -58.5q8 -94 80 -189.5t156 -122.5q76 -24 166.5 -14t156.5 51q33 19 61 19.5t45 -18.5q61 -67 -79 -138q-91 -46 -203 -57t-201 17q-92 30 -170.5 103.5t-130.5 177.5q-25 51 -33.5 82.5t-10.5 88.5q-4 59 0.5 87
t24.5 78q28 71 63.5 118.5t97.5 97.5q150 119 303 131q27 2 53 1z" />
    <glyph glyph-name="A" unicode="A" horiz-adv-x="568" 
d="M235 572q-5 0 -39.5 -143t-33.5 -163q0 -12 90 -6t93 8q8 6 -46 155t-64 149zM214 834q53 -1 108.5 -67t101 -182t68.5 -255q12 -72 26 -99.5t7.5 -44t6.5 -76.5q11 -52 3 -77t-39 -33q-27 -7 -50.5 11t-34.5 53l-12 40h-134q-134 0 -135 -10t-3 -38q-3 -46 -39.5 -63.5
t-64.5 13.5q-25 28 -22.5 130t34.5 323q16 112 29 176.5t31.5 108t40.5 61.5t56 27q11 3 22 2z" />
    <glyph glyph-name="B" unicode="B" horiz-adv-x="620" 
d="M370 258q-57 3 -124 -16l-66 -18l-4 -45q-3 -42 12 -52.5t79 -10.5q68 0 114 23q33 17 39 26.5t6 43.5v46zM206 678q-23 -1 -38 -8q-12 -6 -20.5 -13t-8.5 -11q0 -20 8 -79.5t16.5 -111t11.5 -51.5q7 0 68 40q51 33 78.5 65.5t34.5 68.5q3 18 -1 29.5t-21 27.5
q-29 27 -82 38q-26 5 -46 5zM241 799q64 1 87 -4t61 -25q45 -25 74 -59q29 -33 40.5 -72.5t5.5 -83.5q-6 -45 -29 -91l-23 -45l39 -19q27 -12 47 -37q20 -23 32 -55t15 -67q3 -37 -5 -74q-7 -32 -19 -53t-42 -50q-30 -30 -63 -48q-35 -19 -77 -26q-81 -15 -225 9
q-82 13 -84 14q-2 0 -18 44q-25 68 -38 176t-17 282q-3 154 -1 195t13 53q16 17 72 26q57 9 155 10z" />
    <glyph glyph-name="C" unicode="C" horiz-adv-x="660" 
d="M410.5 793q43.5 -2 77.5 -29q31 -25 40 -58t-7 -62q-33 -57 -89 -17q-30 22 -60 14q-35 -9 -81.5 -52.5t-73.5 -92.5q-60 -107 -41 -194.5t111 -128.5q49 -21 97 -16t109 39q55 31 80 33t44 -24q30 -40 -6 -89t-128 -93q-48 -23 -73 -28.5t-73 -4.5q-81 3 -150.5 40
t-114.5 96t-63 137.5t-1 160.5q25 117 108 216t185 133q66 22 109.5 20z" />
    <glyph glyph-name="D" unicode="D" horiz-adv-x="740" 
d="M197 669v-254q0 -190 4 -217q6 -35 28 -35q11 0 75 23l4 2q101 36 153 97t52 142q-1 53 -25.5 106.5t-58.5 76t-93 41t-97 18.5h-42zM133 846q23 2 43 -11q27 -16 119 -23q187 -15 294 -107.5t120 -250.5q6 -78 -8.5 -129t-60.5 -116q-55 -78 -148.5 -127.5t-207.5 -62.5
q-39 -4 -58.5 -11.5t-32.5 -22.5q-16 -19 -47 -24.5t-52 6.5q-17 11 -32 46t-35 111q-27 104 -27 256.5t28 275.5q26 117 44 149q16 30 46 38q6 2 15 3z" />
    <glyph glyph-name="E" unicode="E" horiz-adv-x="605" 
d="M128 901q26 -4 42 -24q15 -19 30 -21.5t77 3.5q126 12 191 -4.5t65 -61.5q0 -92 -253 -92h-117v-68v-68l156 7q139 6 188 -0.5t61 -33.5q13 -28 3.5 -54.5t-35.5 -36.5q-90 -35 -254 -35h-108v-57q1 -133 49 -165.5t182 10.5q72 23 104.5 18.5t40.5 -39.5q10 -37 -10 -58
t-102 -61q-100 -48 -164 -52t-134 32q-33 17 -53 36t-39 51q-32 52 -40 98t-8 171q0 195 21.5 336.5t54.5 158.5q26 14 52 10z" />
    <glyph glyph-name="F" unicode="F" horiz-adv-x="622" 
d="M515 843q25 -1 42 -11q21 -14 25.5 -47t-13.5 -47q-23 -18 -116.5 -36.5t-177.5 -22.5q-12 -1 -33 -2t-30 -1t-21.5 -3t-16.5 -4t-9.5 -8.5t-5.5 -12v-20t1.5 -26t5.5 -36.5q3 -24 5 -39q13 -103 24 -103q12 1 93 21q82 20 172 26q58 4 78 2t34 -14q20 -17 20.5 -41.5
t-20.5 -43.5q-18 -16 -122.5 -48t-183.5 -45l-72 -11l-8 -126q-8 -126 -18 -144q-11 -18 -47 -18.5t-53 17.5q-32 34 -52 220.5t-15.5 370.5t33.5 211q14 13 44 15t42 -9q11 -9 98 5q87 15 200 25q74 7 97 6z" />
    <glyph glyph-name="G" unicode="G" horiz-adv-x="745" 
d="M394 919l58 5q46 5 75 -28.5t29 -74.5q0 -27 -24.5 -48t-49.5 -14q-27 7 -81 -14t-110.5 -65t-80.5 -94q-22 -44 -28.5 -72.5t-7.5 -75.5q0 -67 20 -103.5t70 -60.5q38 -19 117 -24t119 8q28 10 33.5 19t5.5 46q0 52 6 85l7 32l-67 -12q-61 -10 -82.5 0t-24.5 50
q-2 19 -1 28t14 20t31.5 19.5t63.5 27.5q153 62 202 9q16 -17 20 -57.5t7 -218.5q3 -217 -7 -255q-8 -28 -32 -31q-6 -1 -17 -1q-12 0 -25.5 5.5t-20.5 13.5q-16 19 -29 53l-14 33l-62 -21q-66 -22 -160.5 -17.5t-157.5 32.5q-60 28 -94.5 59t-63.5 83q-22 40 -27 66t-5 102
q0 80 6 107t39 94q58 116 156 197t193 93z" />
    <glyph glyph-name="H" unicode="H" horiz-adv-x="714" 
d="M87.5 899.5q26.5 -5.5 45 -34.5t18.5 -76q0 -39 11 -155.5t16 -132.5q4 -12 111 2q22 3 44 7t35 6t29 2h67l7 156q4 94 9.5 129.5t17.5 52.5q21 28 49 30t47 -23q17 -22 29.5 -135t29.5 -400q11 -196 21 -228q27 -81 -13 -109q-21 -15 -33.5 -15.5t-37.5 11.5
q-35 17 -67.5 106t-49.5 212l-8 53l-56 -8q-5 -1 -24 -4.5t-35.5 -5t-44.5 -1.5l-113 -3l2 -133q1 -84 -2 -112.5t-15 -41.5q-17 -19 -47 -19.5t-47 18.5q-13 15 -36.5 111t-36.5 191q-10 68 -10 239t9 228q7 45 29.5 66.5t49 16z" />
    <glyph glyph-name="I" unicode="I" horiz-adv-x="295" 
d="M106 868q21 0 50 -16q19 -11 23.5 -33t4.5 -106q-1 -123 28 -259q29 -135 44 -269q11 -89 9.5 -115.5t-16.5 -44.5q-20 -25 -57.5 -28t-61.5 19q-16 14 -47.5 114t-62.5 236q-18 77 -20 212.5t14 191.5q11 39 38.5 68.5t53.5 29.5z" />
    <glyph glyph-name="J" unicode="J" horiz-adv-x="642" 
d="M327 902q87 5 135 2t64.5 -12t25.5 -33q19 -50 40 -209.5t21 -254.5q0 -111 -16.5 -164t-69.5 -111q-60 -67 -169.5 -94.5t-205.5 -0.5q-59 17 -104 41q-28 15 -36.5 27t-10.5 37t2.5 36t21.5 22q19 13 31 12.5t48 -14.5q90 -34 183 -12t126 85q19 38 20.5 108t-12.5 231
l-13 149l-39 6q-39 6 -120 13q-82 7 -101 24q-17 15 -18 39t15 45q10 14 40.5 19t141.5 9z" />
    <glyph glyph-name="K" unicode="K" horiz-adv-x="692" 
d="M106 886q36 18 74 -12q40 -35 23 -185q-12 -106 -11 -119q2 -23 17 -16q20 19 75.5 93t83.5 127q6 10 17 31.5t17.5 33t16.5 22t20 10.5q16 0 33 -7.5t26 -18.5q19 -24 20 -60t-12 -73t-34.5 -76t-45.5 -70.5t-48 -56.5l96 -109q70 -85 129.5 -183t59.5 -127
q0 -30 -25.5 -53t-58.5 -23q-21 0 -49.5 22t-83.5 79q-40 42 -79.5 89.5t-54.5 71.5q-41 67 -51 76q-15 15 -26 2q-7 -9 -7.5 -33.5t2.5 -71t3 -76.5q0 -69 -5 -95.5t-19 -40.5q-23 -23 -57 -22.5t-53 23.5q-23 28 -57 183t-40 258q-9 154 21 267.5t83 139.5z" />
    <glyph glyph-name="L" unicode="L" horiz-adv-x="614" 
d="M91 841.5q20 0.5 36.5 -9t23.5 -29.5q10 -27 -2 -49q-13 -25 -2 -120t63 -407l6 -34l91 -7q74 -6 155.5 -27.5t104.5 -42.5q19 -17 18 -43t-21 -46q-18 -18 -41 -20t-73 11q-44 11 -186.5 4t-161.5 0q-23 9 -37 50t-28 134q-69 483 -12 593q10 20 28 31t38 11.5z" />
    <glyph glyph-name="M" unicode="M" horiz-adv-x="897" 
d="M120 914q30 0 47 -18.5t17 -52.5q0 -31 30.5 -86.5t103.5 -156.5l66 -91l55 108q74 143 132.5 209.5t109.5 66.5q32 0 61 -23t40 -56q11 -37 28 -163t27 -254q12 -141 24 -252q10 -62 7 -94t-15 -41.5t-44 -9.5q-36 0 -52 25q-34 50 -88 378q-28 169 -32 179q0 3 -10 -12
q-21 -33 -59 -109q-54 -107 -86.5 -142.5t-75.5 -35.5q-36 0 -75.5 36t-93.5 120l-58 89l-7 -215q-6 -188 -19 -230t-65 -37q-27 2 -40 16t-21 49t-16 118q-25 265 5 462q20 133 41 178t63 45z" />
    <glyph glyph-name="N" unicode="N" horiz-adv-x="744" 
d="M617 859q42 4 54.5 -15.5t12.5 -93.5q0 -87 17 -279q16 -148 13.5 -236.5t-20 -128t-59.5 -60.5q-40 -19 -84.5 2.5t-121.5 97.5q-70 70 -122.5 140.5t-105.5 166.5q-34 62 -35 57q0 -1 1 -3q7 -22 13 -248q4 -155 2 -193.5t-15 -53.5q-20 -22 -51 -21.5t-46 24.5
q-28 42 -52 250.5t-16 334.5q8 124 33 181.5t71 57.5q29 0 66.5 -46.5t101.5 -160.5q56 -100 105.5 -171t109.5 -137l59 -64v265q0 124 1.5 180.5t9.5 96t20 47.5t38 10z" />
    <glyph glyph-name="O" unicode="O" horiz-adv-x="822" 
d="M418 670.5q-8 -0.5 -18 -12.5q-8 -10 -22 -12t-43 2q-35 4 -48.5 -1t-43.5 -36q-54 -56 -73 -148t10 -159q23 -54 81.5 -85.5t130.5 -30t130 37.5q23 13 46.5 34.5t34.5 36.5q17 25 21 43.5t1 58.5q-6 62 -25 99q-19 36 -72 92t-82 71q-20 10 -28 9.5zM378 820
q14 0 26 -1q56 -7 117 -36q67 -32 134.5 -100.5t100.5 -138.5q24 -49 30 -78t6 -96t-5 -92.5t-25 -59.5q-31 -52 -86.5 -100.5t-113.5 -74.5q-57 -26 -141 -32t-146 12q-86 24 -151 77.5t-100 129.5q-14 30 -19 61.5t-5 94.5q0 72 5.5 101t30.5 80q41 86 113 153.5t123 67.5
q17 0 45 18q22 14 61 14z" />
    <glyph glyph-name="P" unicode="P" horiz-adv-x="626" 
d="M227 673.5q-32 0.5 -32 -15t-18 -33.5q-11 -12 -13 -34t3 -89q8 -105 13 -113q4 -6 58 8.5t82 28.5q46 24 74.5 57t28.5 62q1 25 -37.5 61.5t-78.5 49.5q-48 17 -80 17.5zM271 822q16 0 28 -2q189 -29 260 -149q45 -76 36 -151.5t-70 -140.5q-90 -96 -248 -121
q-60 -9 -70.5 -14.5t-6.5 -26.5q5 -28 12 -90q4 -40 1 -54.5t-17 -29.5q-41 -41 -86 -3q-20 16 -53.5 112t-47.5 178q-18 106 -2.5 252t50.5 193q11 16 84.5 32t129.5 15z" />
    <glyph glyph-name="Q" unicode="Q" horiz-adv-x="831" 
d="M414 675q-30 2 -55 -14q-25 -17 -53 -6q-57 21 -111 -90q-50 -103 -31 -195t101 -138q42 -23 98.5 -36t67.5 -2q7 6 -36 72q-18 27 -30.5 54t-12.5 38q0 21 20.5 45t39.5 24q6 0 34 -21t61 -50t59 -49t31 -18q12 4 24.5 47t13.5 86q0 32 -6.5 53.5t-24.5 49.5
q-44 69 -94 108.5t-96 41.5zM490 805q23 -4 63 -24q54 -26 125 -99.5t98 -130.5q15 -31 20.5 -59.5t5.5 -75.5q0 -74 -12.5 -122t-45.5 -99l-33 -52l22 -43q42 -82 -2 -113q-27 -19 -48.5 -15t-56.5 36l-42 38l-70 -18q-67 -18 -138.5 -10.5t-135 33t-115.5 70t-80 100.5
q-91 178 1 375q43 92 109.5 147t133.5 54q36 0 121 7q57 4 80 1z" />
    <glyph glyph-name="R" unicode="R" horiz-adv-x="670" 
d="M226 712q-13 0 -23 -3q-30 -8 -37 -36q-5 -18 2 -100t22 -179l6 -41l44 23q44 22 97 71q51 48 64 85.5t-7 78.5q-22 45 -72.5 73.5t-95.5 27.5zM266 862q65 -2 126.5 -28t102.5 -69q84 -90 86 -195.5t-79 -195.5l-48 -53l66 -65q47 -46 83.5 -106.5t36.5 -93.5
q0 -19 -22.5 -41t-42.5 -22q-8 0 -37 19.5t-60.5 47t-67.5 64t-54.5 61.5t-35 41t-21.5 13q-13 -5 -51 -17l-38 -13l4 -65q2 -38 -1 -56t-14 -30q-33 -36 -81 -10q-15 8 -48 98.5t-49 168.5q-13 68 -18.5 177t0.5 191q7 94 24 124t65 32q42 2 91 15q39 10 83 8z" />
    <glyph glyph-name="S" unicode="S" horiz-adv-x="743" 
d="M363 864q27 1 60.5 -6t58 -15.5t69.5 -25.5q49 -22 92.5 -62.5t51.5 -72.5q7 -26 -10 -48.5t-46 -25.5q-22 -2 -36 4.5t-37 29.5q-43 45 -110.5 60t-134.5 -5t-109 -70q-11 -13 -25.5 -38.5t-14.5 -30.5q20 -31 65.5 -42.5t94.5 -8t114.5 1t110.5 -18.5
q78 -39 120 -117.5t37 -158.5t-55 -128q-46 -45 -103.5 -64t-154.5 -22q-115 -3 -142 6q-63 20 -102 55t-39 71q0 34 13 47q15 15 47.5 12t59.5 -23q41 -30 137.5 -23.5t149.5 43.5q16 11 19 46t-18 60q-38 16 -88.5 22.5t-94.5 5.5t-94 4t-90.5 17t-79.5 46.5t-66 90.5
q-32 75 10 170t134 155q79 53 206 59z" />
    <glyph glyph-name="T" unicode="T" horiz-adv-x="687" 
d="M594 844q21 -2 38 -19q42 -43 14.5 -78t-120.5 -58l-88 -21l8 -202q7 -191 -4 -317t-38 -149q-38 -33 -80 -8q-22 13 -33 69t-22 200q-17 244 7 364q4 21 -5.5 23.5t-71.5 -2.5q-85 -7 -122 -10q-22 -2 -34.5 3.5t-26.5 23.5q-15 21 -16 31t9 33q7 13 20.5 27t25.5 20
q29 14 177 37t261 30q81 6 101 3z" />
    <glyph glyph-name="U" unicode="U" horiz-adv-x="704" 
d="M602 825q28 -6 48 -39q18 -29 23 -179t-9 -240q-16 -99 -55 -175t-93.5 -118t-123 -52.5t-141.5 21.5q-114 46 -182.5 184t-68.5 321q0 88 23.5 159.5t60.5 101.5t74 4q55 -38 17 -104q-27 -46 -30 -101t17 -138q30 -127 82 -196.5t117 -70.5q29 0 62.5 31t53.5 77
q25 53 41 162t13 203q-2 72 1.5 93.5t18.5 38.5q23 23 51 17z" />
    <glyph glyph-name="V" unicode="V" horiz-adv-x="699" 
d="M612.5 873.5q30.5 -2.5 46.5 -28.5q18 -29 4 -126.5t-64 -299.5q-24 -94 -40.5 -153.5t-33.5 -109.5t-29.5 -76t-29.5 -45t-33.5 -25.5t-40.5 -9.5q-31 -4 -49 1.5t-49 27.5q-50 35 -94.5 101.5t-97.5 182.5q-102 225 -102 394q0 55 5 75.5t23 43.5q25 32 52 35t52 -23
q23 -25 15 -55q-14 -60 -11.5 -89.5t25.5 -100.5q39 -121 129 -280q60 -104 72 -97q6 8 88.5 277.5t88.5 299.5q8 40 25 60q18 23 48.5 20.5z" />
    <glyph glyph-name="W" unicode="W" horiz-adv-x="925" 
d="M47.5 870.5q23.5 9.5 49.5 -3.5q17 -9 23 -26t12 -74q8 -87 24 -157q19 -82 59.5 -236t46.5 -154q2 0 18 85.5t25 143.5q16 98 33.5 136t53.5 51q38 14 65 -8t59 -92q27 -60 58.5 -141t51 -130t31.5 -63l26 -33l17 41q33 79 43 146t12 213q1 82 4 130.5t10.5 81.5
t20 44.5t32.5 11.5q48 0 61 -71.5t12 -270.5q0 -129 -13.5 -207.5t-50.5 -162.5q-22 -51 -63 -88t-74 -37q-19 0 -33.5 3.5t-30 15t-26 21.5t-28.5 36.5t-30 45t-38 61.5q-9 15 -14 23l-49 78q-12 -31 -25.5 -77t-22.5 -76.5t-23 -61.5t-34.5 -48t-48.5 -21q-26 0 -40.5 8
t-38.5 36q-51 60 -109.5 232.5t-87.5 340t-5 215.5q14 29 37.5 38.5z" />
    <glyph glyph-name="X" unicode="X" horiz-adv-x="636" 
d="M578 798q19 -12 26 -32.5t1 -47.5t-15.5 -53.5t-30.5 -60.5t-37 -59t-42 -59t-38 -49l-32 -40q32 -38 60.5 -76t55 -78t44.5 -76t28 -68t8 -57.5t-17 -41.5q-20 -14 -44 -10t-47.5 16.5t-48.5 36t-46.5 48.5t-42.5 54.5t-36.5 54t-27.5 45.5q-24 -44 -42 -72.5t-44.5 -61
t-58.5 -56t-71 -40.5q-45 2 -65 28q-8 11 -12 28t-2 30q3 22 73 129.5t105 152.5q3 5 4 10t-2 12.5t-8 16t-13.5 22.5t-18 30t-23 41t-26.5 53q-31 66 -52 122t-20 68q5 28 39.5 52t64.5 20q34 -24 62 -56t51.5 -73t38.5 -72.5t35 -80.5l81 153q66 80 106.5 101t79.5 -4z
" />
    <glyph glyph-name="Y" unicode="Y" horiz-adv-x="606" 
d="M59 852q26 0 42.5 -16t35.5 -59q20 -45 59 -116.5t72 -123.5t37 -47q7 8 33 73q50 131 99 210q24 38 44 58q20 21 35 21q23 0 42 -20t19 -46q0 -35 -50.5 -191t-89.5 -238q-36 -78 -44 -110.5t-12 -116.5q-4 -75 -8.5 -99.5t-18.5 -34.5q-21 -15 -45 -14t-40 18
q-16 19 -28 66q-12 49 -23 141q-8 66 -16.5 92.5t-33.5 61.5q-50 70 -109 215.5t-59 200.5q0 25 19.5 50t39.5 25z" />
    <glyph glyph-name="Z" unicode="Z" horiz-adv-x="726" 
d="M490 822q36 -2 61 -15q76 -41 42 -136q-22 -63 -82.5 -165t-141.5 -212l-73 -100l83 -6q101 -8 181 -14q78 -6 107.5 -21.5t29.5 -51.5q0 -32 -19 -42q-30 -16 -199 -22q-36 -1 -95 -3l-274 -8l-28 28q-26 26 -28 51.5t20 66.5t80 124q244 344 232 363q-6 11 -112 11
q-69 0 -90.5 -3.5t-34.5 -17.5q-36 -43 -108 5q-25 17 -33 29.5t-8 34.5q0 23 8.5 38t27.5 26.5t59 18t94.5 11t141.5 7.5q123 5 159 3z" />
    <glyph glyph-name="bracketleft" unicode="[" horiz-adv-x="409" 
d="M211.5 872q57.5 2 75.5 -13q17 -15 17.5 -41.5t-14.5 -47.5t-36 -21q-17 0 -61 -14l-44 -13l7 -120q6 -121 22 -224t24 -182l7 -79h59q37 0 53.5 -5t32.5 -22q24 -23 25.5 -40t-17.5 -40q-11 -13 -34.5 -20.5t-76.5 -13.5q-70 -8 -96 -9t-39.5 3.5t-26.5 21.5
q-21 27 -34 123q-14 97 -34 225q-21 131 -21 281q0 52 0.5 81.5t4.5 56.5t9 39.5t17.5 24.5t26 17.5t37.5 12.5q59 17 116.5 19z" />
    <glyph glyph-name="backslash" unicode="\" horiz-adv-x="558" 
d="M51 869.5q31 8.5 50 -4.5q11 -8 133 -242q121 -233 209 -397q67 -127 80.5 -176t-10.5 -74q-18 -17 -45 -16.5t-43 18.5q-17 19 -110 166q-147 234 -270 537q-37 91 -42.5 114.5t5.5 43.5q12 22 43 30.5z" />
    <glyph glyph-name="bracketright" unicode="]" horiz-adv-x="364" 
d="M49 937q15 2 91 -9q102 -14 121.5 -33t31 -66t21.5 -140q10 -107 17 -379t0 -294q-8 -26 -48.5 -41t-103.5 -15q-43 0 -61.5 4.5t-31.5 17.5q-34 34 -13 71.5t74 37.5h40l-7 100q-7 101 -13 324t-11 247q-3 13 -15.5 21t-43.5 15q-55 13 -77 41q-20 25 -20 40.5t18 38.5
q9 10 14.5 14t16.5 5z" />
    <glyph glyph-name="asciicircum" unicode="^" horiz-adv-x="539" 
d="M0 543q0 19 43 83t94.5 124t72.5 67q39 13 75 8t78 -44.5t90 -117.5q23 -38 40 -73t17 -46q0 -26 -18.5 -46.5t-42 -20.5t-48 22.5t-86.5 99.5q-17 21 -28 29.5t-17.5 9.5l-6.5 1q-8 5 -68 -59q-55 -58 -78 -75.5t-44 -17.5q-29 0 -51 17t-22 39z" />
    <glyph glyph-name="underscore" unicode="_" horiz-adv-x="658" 
d="M169 28q131 8 281 0q76 -4 104.5 -7.5t41 -8.5t21.5 -18q16 -25 9.5 -52.5t-30.5 -41.5q-19 -10 -197.5 -14.5t-289.5 2.5q-60 4 -84.5 19.5t-24.5 49.5q0 27 13.5 40.5t47.5 20t108 10.5z" />
    <glyph glyph-name="grave" unicode="`" horiz-adv-x="253" 
d="M90 864q20 -13 78.5 -118.5t54.5 -122.5q-7 -26 -27.5 -41t-45.5 -11q-25 3 -33 8t-39 36q-29 30 -47 60t-27 89.5t1 75.5t40.5 24.5t44.5 -0.5z" />
    <glyph glyph-name="a" unicode="a" horiz-adv-x="508" 
d="M260 485l-21 -40q-20 -40 -18.5 -48t30.5 -8q32 0 32 16t-12 48zM262 724q30 2 59 -12q63 -32 98 -127t49 -273q12 -155 10.5 -214.5t-19.5 -76.5q-19 -18 -47 -18t-42 17q-15 18 -32 105l-18 88l-88 3l-88 3l-7 -39q-7 -38 0 -57q8 -22 -1 -48t-29 -35q-24 -12 -49 -2
t-42 38q-31 49 -4.5 204t87.5 281q76 157 163 163z" />
    <glyph glyph-name="b" unicode="b" horiz-adv-x="582" 
d="M341 320l-73 -35q-57 -28 -69 -46.5t2 -54.5q5 -12 17.5 -14.5t49.5 0.5q38 3 55 10.5t36 28.5v1q28 31 29 43t-22 39zM214 570q-35 0 -47 -37.5t1 -106.5q4 -18 8.5 -22t16.5 3q20 10 54 49q41 46 31 80t-64 34zM240 720q64 0 117.5 -34t79.5 -93q14 -32 16 -50.5
t-5 -52.5q-9 -40 -5 -51t32 -36q33 -29 55.5 -73.5t22.5 -80.5q0 -59 -48.5 -126t-111.5 -93q-35 -15 -111 -13.5t-123 18.5q-51 18 -69 39.5t-43 96.5q-58 175 -44 358q7 91 24.5 126.5t55.5 33.5q29 -1 73 16q41 16 84 15z" />
    <glyph glyph-name="c" unicode="c" horiz-adv-x="522" 
d="M354 662q41 -5 57 -35q19 -37 1.5 -69.5t-58.5 -35.5q-37 -4 -88 -52q-87 -83 -81 -169q6 -68 55.5 -97t128.5 -10q59 15 77.5 10.5t34 -33t11.5 -48.5q-6 -26 -47.5 -52t-99.5 -40q-76 -18 -142 -1.5t-116 65.5q-34 34 -57 82t-29 97q-5 47 16 119.5t53 113.5
q56 74 139.5 118.5t144.5 36.5z" />
    <glyph glyph-name="d" unicode="d" horiz-adv-x="543" 
d="M228 486q-7 0 -15 -2q-31 -8 -40 -31t1 -67q10 -49 11 -130q0 -81 6 -88q9 -9 61 11t66 39q20 24 19 83.5t-21 105.5q-16 39 -39.5 59.5t-48.5 19.5zM250.5 644q60.5 0 95.5 -20q77 -43 122 -129.5t46 -193.5q1 -99 -37.5 -162t-122.5 -100q-29 -13 -104 -22t-92 -1
q-11 4 -42 12q-17 4 -28.5 16.5t-24.5 42.5q-27 65 -45 174.5t-18 213.5q0 81 3.5 107t16.5 39q18 17 46.5 18t42.5 -16q8 -11 16.5 -11t30.5 13q34 19 94.5 19z" />
    <glyph glyph-name="e" unicode="e" horiz-adv-x="494" 
d="M245 710q108 -2 156.5 -16.5t56.5 -47.5q13 -51 -36 -75.5t-163 -23.5h-101v-42q0 -30 4 -35.5t21 -0.5q40 12 104 14.5t93 -7.5q35 -12 48.5 -36.5t2.5 -54.5q-10 -26 -59.5 -45.5t-118.5 -24.5q-73 -6 -73 -9.5t12 -58.5q8 -40 15 -47t35 -7q39 0 108 12q47 9 61.5 8
t29.5 -15q38 -34 15.5 -72.5t-94.5 -62.5q-153 -51 -234 -13q-55 26 -81 82t-42 182q-9 87 -1 169.5t32 145t55 73.5q29 10 154 8z" />
    <glyph glyph-name="f" unicode="f" horiz-adv-x="496" 
d="M209 711q102 1 150.5 -5.5t67.5 -23t19 -51.5q1 -90 -211 -91q-54 0 -63 -3.5t-5 -22.5q7 -26 7 -62v-36l112 6q96 5 133 -5.5t45 -43.5q13 -55 -37 -86t-170 -42l-75 -7l8 -84q4 -56 1.5 -73.5t-16.5 -33.5q-16 -17 -39.5 -21t-46.5 6q-29 12 -59 134.5t-30 228.5
q0 75 15.5 168t32.5 121q8 13 20 17.5t39.5 6.5t101.5 3z" />
    <glyph glyph-name="g" unicode="g" horiz-adv-x="648" 
d="M329 720q44 0 88.5 -15t69.5 -39q20 -18 19.5 -50t-21.5 -51q-13 -12 -29 -14.5t-57 3.5q-66 10 -100 5.5t-58 -26.5q-27 -27 -42 -60t-21 -83q-15 -114 49 -162.5t167 -0.5q31 15 39 23.5t3 25.5q-6 26 -7 34q0 9 -50 9q-29 0 -52.5 12t-34.5 29t-9 38t21 37
q24 22 74.5 38.5t91.5 16.5q72 0 110.5 -67t38.5 -193q0 -78 -15 -106q-9 -19 -21 -24t-48 -5q-55 0 -114 -32q-47 -25 -112.5 -35t-102.5 3q-59 19 -107.5 61.5t-77.5 99.5q-12 23 -16.5 53.5t-4.5 90.5q0 66 5.5 96.5t25.5 75.5q31 67 64.5 102t102.5 71q75 39 131 39z
" />
    <glyph glyph-name="h" unicode="h" horiz-adv-x="592" 
d="M98 715q27 0 50.5 -30t23.5 -67q0 -18 -3 -47t-5 -49.5t-0.5 -40.5t12 -29t30.5 -5l131 2l5 146q2 64 15.5 92t52.5 28q34 0 54 -33.5t35 -116.5q6 -31 22.5 -106.5t23 -114.5t14 -98t3.5 -107t-17 -92q-22 -27 -58.5 -28t-56.5 24q-7 8 -12 16.5t-10.5 21.5t-9 22
t-9 27.5t-8 27.5t-9 33.5t-9.5 35.5l-21 78h-74l-82 -5v-103v-15q0 -25 -0.5 -36.5t-1 -29t-2.5 -24.5l-5 -17.5t-8 -13.5l-12.5 -7.5t-17 -5.5t-22.5 -1q-28 0 -39.5 10t-27.5 50q-38 93 -47.5 235t14.5 280q5 34 31 63.5t50 29.5z" />
    <glyph glyph-name="i" unicode="i" horiz-adv-x="223" 
d="M85 720.5q31 -1.5 46 -19.5q16 -20 23 -65q4 -29 21.5 -272.5t17.5 -276.5q0 -16 -23 -38t-40 -22q-19 0 -43 17q-23 17 -50 105.5t-35 171.5q-7 77 6.5 222.5t29.5 161.5q16 17 47 15.5z" />
    <glyph glyph-name="j" unicode="j" horiz-adv-x="594" 
d="M440 726q41 2 61 -37.5t39 -152.5q23 -131 24.5 -195t-15.5 -123q-15 -52 -59.5 -104.5t-92.5 -74.5q-34 -16 -108.5 -19.5t-114.5 9.5q-63 19 -118.5 63.5t-55.5 76.5q0 44 38.5 54.5t94.5 -18.5q39 -20 90.5 -24t87.5 12q49 21 62.5 77t0.5 192l-7 73l-113 -2
q-76 -1 -97.5 2.5t-32.5 17.5q-13 18 -14.5 41.5t8.5 39.5q4 6 35 16.5t71 18.5q97 21 145 39q46 17 71 18z" />
    <glyph glyph-name="k" unicode="k" horiz-adv-x="615" 
d="M64 734q32 2 48 -16q15 -16 36 -91.5t24 -79.5t24.5 12.5t52.5 45.5t60 59q22 24 43.5 41.5t28.5 17.5q18 0 45 -30t27 -49q0 -23 -25 -63.5t-84 -116.5q-68 -87 -68 -95q0 -11 53.5 -46t121.5 -68q76 -37 105.5 -64t29.5 -61q0 -30 -26.5 -51t-53.5 -13q-24 7 -130 37
q-105 30 -141 53l-37 23v-48q0 -47 -27 -76q-24 -26 -41.5 -27.5t-40.5 19.5q-61 54 -85 502q-5 93 -3 120t15 42q17 21 48 23z" />
    <glyph glyph-name="l" unicode="l" horiz-adv-x="473" 
d="M84 707q36 1 47 -13q4 -5 12 -72t11 -119q6 -124 19 -220l12 -97l102 6q89 6 123 -7.5t34 -53.5q0 -34 -30 -51t-134 -41q-111 -26 -140 -27t-63 20q-35 21 -52.5 80t-23.5 176q-5 101 6.5 241.5t28.5 162.5q12 14 48 15z" />
    <glyph glyph-name="m" unicode="m" horiz-adv-x="740" 
d="M151 730q38 10 68 -16.5t69 -104.5l50 -98l48 76q42 65 71.5 81.5t70.5 -0.5q36 -16 55.5 -66t36.5 -169q16 -113 30.5 -181.5t40.5 -151.5q19 -59 19.5 -73t-14.5 -31q-20 -22 -55 -22q-22 0 -33.5 7t-24.5 30q-22 36 -49.5 111t-43.5 144q-18 72 -22 85q-4 12 -43 -26
q-2 -3 -5 -5q-84 -87 -169 -10q-38 35 -45 57q-10 32 -22 -5q-10 -31 -27 -131q-10 -54 -28.5 -116.5t-25.5 -71.5q-17 -21 -44.5 -16t-47.5 32q-5 7 -7.5 13t-3 17t0 21t3 32t5 42.5t7.5 59t9 75.5q14 126 25.5 198.5t26 120.5t31.5 67t43 25z" />
    <glyph glyph-name="n" unicode="n" horiz-adv-x="626" 
d="M462 722q23 9 49 -5q16 -9 22.5 -24.5t11.5 -58.5q8 -66 30 -233q23 -170 22 -231.5t-28 -94.5q-17 -22 -31 -29t-40 -7q-28 0 -46.5 11t-57.5 50q-25 25 -66.5 76t-74.5 98l-80 113v-151q0 -101 -4 -129.5t-18 -44.5q-21 -22 -43.5 -22t-43.5 22q-52 56 -63 275
q-5 107 6.5 205.5t32.5 123.5q17 21 36.5 22.5t51 -21.5t73.5 -69.5t106 -127.5q94 -117 102 -123q3 -1 4.5 19t1.5 54.5v79.5q-2 87 1.5 130t13.5 63t32 29z" />
    <glyph glyph-name="o" unicode="o" horiz-adv-x="623" 
d="M278 518q-40 0 -67 -37q-42 -54 -45.5 -124t32.5 -103q24 -21 61 -29t74 0q40 9 64 42t24.5 75t-22.5 87q-39 70 -95 86q-13 3 -26 3zM241 673q10 0 39 -2q126 -9 212 -97.5t100 -223.5q9 -82 -35 -165.5t-118 -125.5q-48 -27 -128 -30t-133 20q-104 46 -151 153t-14 222
q18 64 58 123t87 93q28 19 43.5 26t39.5 7z" />
    <glyph glyph-name="p" unicode="p" horiz-adv-x="508" 
d="M193 574q-29 1 -35 -14q-4 -11 3.5 -77t16.5 -90q3 -10 30.5 -5t59.5 22t35 55.5t-24 71.5q-23 26 -68 35q-9 2 -18 2zM211 728q48 1 96 -16t85 -49q85 -72 86 -178.5t-81 -179.5q-28 -25 -83.5 -46.5t-91.5 -21.5q-16 0 -18.5 -11.5t-0.5 -68.5q3 -56 0 -71t-21 -27
q-40 -28 -77 -6q-18 10 -51 97.5t-46 157.5q-12 74 -6 198.5t24 151.5q7 10 16.5 18t16.5 8q16 0 59 21q30 16 66 20q14 2 27 3z" />
    <glyph glyph-name="q" unicode="q" horiz-adv-x="595" 
d="M247 558q-33 -2 -54.5 -39t-26.5 -107q-4 -50 0 -64.5t28 -38.5q33 -33 40 -33q1 0 2 5t0 14t-3 20q-7 39 12.5 62t51.5 18.5t58 -37.5q26 -31 36.5 -25.5t10.5 50.5q0 36 -17.5 68t-57.5 68q-32 29 -60 36q-10 3 -20 3zM203 683h48q77 -2 124 -24.5t108 -87.5
q49 -53 66 -94t17 -105q-1 -121 -74 -197q-17 -18 -22 -33t-3.5 -44.5t-2.5 -42t-20 -23.5q-28 -20 -49.5 -15.5t-49.5 36.5q-33 38 -62 38q-37 0 -92.5 20t-91.5 46q-81 58 -96 168t41 220q17 31 39 61t40 45q24 19 38 25t42 7z" />
    <glyph glyph-name="r" unicode="r" horiz-adv-x="570" 
d="M197.5 568q-15.5 -4 -23.5 -28q-6 -19 -4.5 -74.5t7.5 -66.5q12 -19 71 62q31 42 30 63.5t-34 34.5q-31 13 -46.5 9zM240.5 716.5q47.5 -3.5 91 -22.5t70.5 -51q46 -56 45.5 -118t-49.5 -138l-34 -53l59 -61q53 -56 85 -102.5t32 -69.5t-22 -40.5t-51 -17.5
q-32 0 -86.5 42t-103.5 104t-64.5 55t-20.5 -93q-6 -94 -21 -112t-45 -17t-48 20q-18 20 -39.5 90.5t-32.5 143.5q-12 77 1 197q10 98 18 123.5t31 38.5q21 12 35 30q21 28 61.5 41.5t88 10z" />
    <glyph glyph-name="s" unicode="s" horiz-adv-x="561" 
d="M281.5 705q52.5 2 82.5 -28q27 -27 30.5 -55.5t-17 -46t-56.5 -15.5q-79 4 -105 -45q-8 -15 8 -30t89 -62q135 -88 177 -134.5t42 -109.5q0 -38 -27 -74.5t-68 -53.5q-33 -14 -123.5 -13.5t-140.5 14.5q-149 41 -170 98q-14 36 33 67q17 11 32.5 11t60.5 -12
q67 -18 123 -14l55 3l-83 57q-111 77 -148.5 127.5t-30.5 116.5q9 99 125 164q59 33 111.5 35z" />
    <glyph glyph-name="t" unicode="t" horiz-adv-x="496" 
d="M81 700q35 2 149 -2q55 -2 88.5 -4t62 -5.5t42.5 -8t24.5 -12t14 -16.5t4.5 -24q3 -36 -21 -52.5t-89 -23.5l-64 -7l6 -62q6 -62 14 -233q5 -117 3 -147t-16 -44q-18 -19 -48 -19.5t-47 17.5q-32 33 -53.5 189t-8.5 261l5 46l-48 7q-53 9 -76 26t-23 49q0 20 6 31t22 21
q18 11 53 13z" />
    <glyph glyph-name="u" unicode="u" horiz-adv-x="538" 
d="M386 664q23 0 34.5 -7.5t24.5 -30.5q42 -72 57.5 -200.5t-7.5 -212.5q-14 -51 -45 -90.5t-71.5 -59t-87 -21.5t-91.5 21q-60 29 -108 98.5t-72.5 160t-18.5 179.5q10 130 81 137q42 5 55 -19.5t7 -96.5q-4 -52 -0.5 -80.5t18.5 -69.5q19 -53 60 -105.5t63 -52.5
q43 0 61 76t1 182q-18 105 -19.5 133t8.5 41q6 7 20.5 12.5t29.5 5.5z" />
    <glyph glyph-name="v" unicode="v" horiz-adv-x="591" 
d="M502.5 693.5q20.5 -2.5 40.5 -22.5q13 -15 16.5 -28.5t-0.5 -38.5q-12 -82 -81 -269t-102 -228q-39 -49 -86.5 -55.5t-89.5 32.5q-42 40 -105 191t-93 285q-8 33 10.5 61t48.5 28t48.5 -23t45.5 -92q15 -40 43 -99t51.5 -101.5t25.5 -39.5q4 4 86 188q34 76 63.5 134.5
t37.5 64.5q20 15 40.5 12.5z" />
    <glyph glyph-name="w" unicode="w" horiz-adv-x="711" 
d="M593 716q29 6 53.5 -21.5t30.5 -76.5q8 -55 2 -225t-18 -210q-12 -43 -46 -82.5t-64 -46.5q-32 -8 -80.5 17t-72.5 60l-23 34l-19 -44q-19 -44 -36 -59q-16 -15 -53 -20t-59 5q-27 13 -69 67t-63 106q-26 61 -46 144.5t-28 159.5q-6 68 7.5 95.5t52.5 27.5q32 0 48 -28
t33 -109q19 -97 47 -161l28 -65l7 102q4 70 10 90.5t26 39.5q48 43 87 19t89 -128q48 -100 63 -122q13 -17 16 -11q3 5 7 34q13 88 19.5 176.5t1.5 128.5q-4 34 -1 50.5t14 29.5q17 20 36 23z" />
    <glyph glyph-name="x" unicode="x" horiz-adv-x="563" 
d="M408 700q34 -16 33 -54.5t-38 -147.5l-45 -135l88 -111q69 -89 82.5 -126.5t-14.5 -64.5q-16 -15 -29 -19t-33.5 5t-46.5 30t-72 62q-59 52 -68 45q-5 -13 -45 -75q-25 -37 -40 -50t-35 -15q-33 -4 -51 15t-18 45q0 20 24.5 100.5t40.5 111.5q7 15 -4 41t-61 104
q-31 50 -53.5 92.5t-22.5 52.5q0 23 22.5 46t45.5 23q24 0 95 -80l71 -80l48 87q39 71 66.5 92.5t59.5 5.5z" />
    <glyph glyph-name="y" unicode="y" horiz-adv-x="501" 
d="M398 734q17 5 37.5 -6.5t27.5 -30t9 -77t-5 -168.5q-6 -176 -19 -285t-28 -126q-15 -16 -37.5 -20t-38.5 6q-45 28 -57 180l-8 92l-51 25q-88 42 -152 132.5t-73 184.5q-5 43 -1.5 55.5t23.5 25.5q28 20 52 10t50 -54q21 -36 88.5 -114t77.5 -78q7 0 21 71q31 163 84 177
z" />
    <glyph glyph-name="z" unicode="z" horiz-adv-x="507" 
d="M248 670q78 -4 105.5 -7t41.5 -8.5t30 -23.5q44 -46 24 -121t-113 -216l-54 -82l80 -12q65 -9 90 -24t25 -44q0 -19 -4 -29.5t-13 -20t-32.5 -15.5t-53.5 -11.5t-83 -12.5q-62 -8 -92 -12t-62 -6t-43.5 -1.5t-26 5t-20.5 10t-17 16.5q-25 27 -28.5 49t11.5 53.5t58 91.5
q121 167 148.5 208t24.5 48q-6 9 -63 16q-53 6 -82.5 28t-32.5 56q-3 25 2 37.5t24.5 21t56.5 8t99 -1.5z" />
    <glyph glyph-name="braceleft" unicode="{" horiz-adv-x="416" 
d="M234 956q97 0 97 -69q0 -32 -13 -47t-42 -15q-23 0 -35 -18t-18.5 -63t-11.5 -136q-4 -97 -10.5 -138.5t-21.5 -76.5l-24 -56l40 -36q42 -37 56.5 -77t14.5 -122v-93h41q26 0 45.5 -12t28 -29t4.5 -37t-22 -36q-24 -23 -81 -25.5t-93 17.5q-45 24 -66 74t-21 135v94
l-44 43q-28 27 -39.5 39.5t-16 30.5t-0.5 32.5t17 46.5q16 42 22.5 83t9.5 132q5 129 25.5 197t68.5 119q27 28 42.5 35.5t46.5 7.5z" />
    <glyph glyph-name="bar" unicode="|" horiz-adv-x="206" 
d="M64 868q34 0 51 -28.5t23 -96.5q31 -381 37 -610.5t-16 -271.5q-18 -22 -41.5 -23.5t-45.5 18.5q-19 17 -29 76.5t-22 219.5q-18 217 -20 449q-3 199 8 235q8 28 36 31q7 1 19 1z" />
    <glyph glyph-name="braceright" unicode="}" horiz-adv-x="461" 
d="M114 968q77 0 122.5 -73.5t56.5 -215.5q5 -73 11.5 -98.5t22.5 -42.5q25 -27 44 -33q8 -3 21 -16t22 -29q16 -25 17.5 -37t-7.5 -35q-6 -15 -23 -37t-34 -39l-44 -41l-1 -113q0 -79 -4.5 -101t-23.5 -42q-41 -45 -106 -61.5t-128 2.5q-32 10 -47.5 32t-12.5 43.5t24.5 38
t54.5 16.5q39 0 69 11l29 11l-5 116q-2 37 -2.5 53t1.5 36t4 26.5t11 18.5t17 17.5t26 18.5l26 18l-41 42q-37 39 -54.5 92.5t-18.5 131.5q0 74 -14.5 111.5t-50.5 61.5q-33 22 -39.5 42t12.5 48q10 16 23 21.5t42 5.5z" />
    <glyph glyph-name="asciitilde" unicode="~" horiz-adv-x="558" 
d="M164 496q32 0 53.5 -10t71.5 -48l75 -59l34 33q29 27 59 30.5t52 -17.5q42 -41 -12 -109q-46 -58 -106 -68.5t-127 27.5q-54 30 -82 57l-29 27l-26 -33q-23 -30 -45.5 -35.5t-52.5 11.5q-17 10 -23 21.5t-6 34.5q0 55 49 96.5t115 41.5z" />
    <glyph glyph-name="uni007F" horiz-adv-x="1000" 
 />
    <glyph glyph-name="exclamdown" unicode="&#xa1;" horiz-adv-x="186" 
d="M72 741q-23 -3 -41 9t-25.5 30t-4 40t20.5 39q17 18 31 20t42 -9q26 -11 32 -41t-10 -57.5t-45 -30.5zM87 -19q-20 1 -41 24q-15 16 -21 47.5t-13 134.5q-11 158 -11 302q0 97 3.5 124t17.5 42q21 20 37 20t42 -20q60 -47 55 -436q-1 -80 -1.5 -114t-3.5 -60t-7 -32.5
t-13 -13.5q-24 -20 -44 -18z" />
    <glyph glyph-name="cent" unicode="&#xa2;" horiz-adv-x="585" 
d="M198 869q31 5 57.5 -24.5t33.5 -79.5q5 -35 11.5 -42t32.5 -7q38 0 65.5 -23.5t27.5 -57.5q0 -65 -68 -63q-65 2 -144 -86q-26 -29 -32.5 -44.5t-3.5 -49.5q3 -53 33.5 -74t104.5 -21q42 1 66.5 6t47.5 19q73 43 108 4q32 -35 7.5 -76.5t-99.5 -78.5q-27 -14 -43.5 -26.5
t-14.5 -17.5q7 -11 0 -66q-9 -65 -42 -87t-73 11q-15 12 -21 29.5t-9 56.5l-5 66l-41 6q-45 7 -96.5 45t-74.5 81q-40 78 -18.5 172.5t95.5 162.5l50 46l-7 88q-4 56 -1.5 75.5t14.5 33.5q18 19 39 22z" />
    <glyph glyph-name="sterling" unicode="&#xa3;" horiz-adv-x="684" 
d="M359 923.5q66 -1.5 101 -21.5q32 -19 59 -56t27 -62q0 -28 -19.5 -50t-44.5 -22q-23 0 -45 17.5t-22 36.5q0 13 -46 10q-31 -2 -42 -9.5t-24 -34.5q-13 -28 -14 -46t9 -68l14 -74l88 -6q74 -4 99 -17.5t25 -47.5q0 -69 -123 -82l-67 -7l-2 -69q-2 -70 -24 -119l-22 -50
h127q128 0 171 -10q51 -12 66.5 -44.5t-15.5 -63.5q-14 -13 -49 -18t-150 -10q-256 -11 -336 -33q-17 -5 -50 10q-44 19 -49.5 64.5t31.5 78.5q49 44 66.5 65t33.5 53q22 46 22 101v55l-46 7q-51 9 -73 26.5t-22 49.5q0 36 16 48.5t60 12.5h51l-9 58q-16 97 20 184.5
t107 125.5q35 19 101 17.5z" />
    <glyph glyph-name="currency" unicode="&#xa4;" 
 />
    <glyph glyph-name="yen" unicode="&#xa5;" horiz-adv-x="604" 
d="M65 836.5q28 6.5 48 -6.5q15 -10 25.5 -34t5.5 -37q-4 -10 30.5 -60.5t75.5 -97t53 -46.5q6 0 20 41q18 52 62.5 122t64.5 79q26 12 53.5 0t33.5 -38q6 -25 -16 -77q-16 -39 -38 -119.5t-33 -140.5l-7 -41h49q83 0 83 -64q0 -31 -17.5 -44.5t-71.5 -24.5
q-64 -13 -63.5 -19t35.5 -22q30 -14 38 -40.5t-8.5 -51t-49.5 -33.5q-11 -2 -18.5 -9t-7.5 -13q0 -19 -24 -39.5t-46 -20.5q-10 0 -23 6t-20 14q-18 20 -18 33q0 5 -6 8.5t-14 3.5q-20 0 -38 21t-18 43q0 10 8 24.5t19 25.5q29 26 25.5 38t-40.5 12q-35 0 -67 20.5t-32 42.5
q0 29 21 48t53 19q63 1 58 19q-3 8 -20 20q-31 20 -97 83q-83 79 -117.5 179t3.5 148q18 22 46 28.5z" />
    <glyph glyph-name="section" unicode="&#xa7;" horiz-adv-x="521" 
d="M149 488v-42q0 -36 24 -64t84 -63q47 -26 62.5 -26t25.5 27q12 32 -10.5 57.5t-98.5 64.5zM231 933q22 1 45 -2q46 -4 83.5 -22t56.5 -46q19 -29 17.5 -58.5t-23.5 -47.5q-25 -20 -41 -18t-46 27q-21 17 -35 21.5t-38 0.5q-38 -6 -54 -22t-17 -48q-1 -34 18 -54t95 -66
q79 -46 130 -98.5t64 -98.5q7 -28 5 -50t-16 -67q-22 -73 -34.5 -88t-15.5 -67q-7 -172 -203 -183q-47 -2 -72.5 1t-51.5 16q-45 21 -64 49.5t-6.5 56t33 33t69.5 -5.5q47 -10 84.5 -4t37.5 25q0 6 -19 21.5t-46 30.5q-66 36 -112 82q-58 56 -71.5 136t21.5 164
q10 25 9.5 39.5t-12.5 45.5q-26 68 -1.5 141t87.5 118q48 34 123 38z" />
    <glyph glyph-name="copyright" unicode="&#xa9;" horiz-adv-x="960" 
d="M458 696q41 0 67 -18t26 -46q0 -25 -22 -47t-47 -22q-26 0 -53.5 -30.5t-39.5 -72.5q-10 -37 -3.5 -47.5t48.5 -22.5q46 -12 107 1q54 12 80.5 3t34.5 -40q12 -50 -42.5 -84t-154.5 -39q-60 -3 -83 1t-64 25q-32 17 -50.5 33.5t-29.5 39.5q-18 35 -20.5 77.5t9.5 82.5
t35 77.5t54 66t70 45.5t78 17zM511 750q-12 0 -31 -2q-54 -4 -144.5 -46.5t-122.5 -78.5q-56 -64 -63.5 -149t34.5 -172q27 -53 67 -87t109 -60q62 -24 132 -22t121 28q70 35 107.5 93t37.5 130q0 70 -57.5 174.5t-129.5 164.5q-18 15 -30 20.5t-30 6.5zM509 896
q48 0 70.5 -6t63.5 -31q80 -48 157.5 -156t115.5 -224q28 -87 2 -194.5t-93 -179.5q-88 -93 -207.5 -128.5t-239.5 -3.5q-117 32 -202.5 97t-125.5 152q-122 269 55 480q22 27 47 49t37 27q31 11 82 42q126 75 238 76z" />
    <glyph glyph-name="guillemotleft" unicode="&#xab;" horiz-adv-x="744" 
d="M307 629q22 0 39 -22t17 -51q0 -21 -17.5 -43.5t-75.5 -77.5q-38 -37 -63.5 -66t-22.5 -33q6 -11 90 -78q77 -62 99.5 -86.5t22.5 -48t-20.5 -42t-45.5 -18.5q-12 0 -46.5 17t-72.5 40q-246 151 -205 269q7 21 73.5 80t137.5 109.5t90 50.5zM626 629q22 0 39 -22t17 -51
q0 -21 -17.5 -43.5t-75.5 -77.5q-39 -37 -64.5 -66t-22.5 -33q7 -11 91 -78q77 -62 99.5 -86.5t22.5 -48t-20.5 -42t-46.5 -18.5q-11 0 -46 17t-73 40q-246 151 -205 269q7 21 73.5 80t138 109.5t90.5 50.5z" />
    <glyph glyph-name="registered" unicode="&#xae;" horiz-adv-x="1030" 
d="M477.5 560q-24.5 1 -29.5 -8t1 -44t12 -35q8 0 40 33q20 21 23 29t-8 15q-14 9 -38.5 10zM505 707q55 -3 100.5 -22.5t69.5 -55.5q20 -31 18.5 -77.5t-23.5 -89.5l-24 -47l43 -44q56 -59 65 -95t-27 -63q-26 -21 -40.5 -21t-50.5 21q-38 23 -89 72q-44 43 -62.5 42
t-27.5 -46q-8 -42 -21 -55.5t-46 -13.5q-36 0 -57.5 33.5t-40.5 117.5q-29 131 10 246q14 43 62.5 68.5t111.5 28.5q15 1 29 1zM481 777q-51 -1 -94 -15q-72 -24 -136 -91t-93.5 -147.5t-10.5 -140.5q17 -55 43 -102t51 -70q53 -49 124.5 -88.5t108.5 -40.5q17 -1 76 17
q101 30 172 82t95 113q28 75 4.5 196.5t-78.5 184.5q-41 48 -113.5 75.5t-148.5 26.5zM505 935q111 0 173.5 -19.5t140.5 -77.5q55 -40 81.5 -77.5t63.5 -129.5q25 -61 30.5 -93.5t6 -124t-4.5 -121.5t-27 -78q-28 -60 -82 -114t-121.5 -91t-140.5 -58.5t-144.5 -20.5
t-127.5 27q-188 91 -324 312q-20 22 -24.5 40t-4.5 75q1 172 82 309t222 206q55 27 83 32t118 4z" />
    <glyph glyph-name="degree" unicode="&#xb0;" horiz-adv-x="410" 
d="M197 721q-18 4 -34 -4t-23.5 -28t8.5 -31t51 -11q24 0 32.5 4t8.5 15q-1 22 -13 36.5t-30 18.5zM239.5 857.5q32.5 -7.5 69.5 -45.5q55 -56 68 -119t-20 -112q-34 -50 -93.5 -70.5t-125.5 -4.5q-90 22 -123.5 95t7.5 155q20 38 46 57t84 36q55 16 87.5 8.5z" />
    <glyph glyph-name="uni00B2" unicode="&#xb2;" horiz-adv-x="361" 
d="M129.5 816q49.5 -3 85.5 -30q52 -40 45 -125.5t-70 -169.5q-17 -23 -14 -27q4 -6 76 -10q60 -4 70 -14q21 -21 -1 -43q-8 -8 -26 -9.5t-98 -0.5q-113 0 -130 4q-39 9 -42.5 38t30.5 53q24 16 50 46t41 58q15 29 24.5 64t6.5 48q-8 24 -34 37t-50 4q-28 -9 -28 -39
q0 -11 -10.5 -21t-23.5 -10t-22 13t-9 32q0 23 13 45t35 38q32 22 81.5 19z" />
    <glyph glyph-name="uni00B3" unicode="&#xb3;" horiz-adv-x="345" 
d="M132.5 831q58.5 -6 82.5 -52q14 -26 5.5 -66t-32.5 -69q-14 -16 -8 -17h3q13 0 49 -18.5t50 -32.5q19 -18 26.5 -34t7.5 -40q0 -36 -30.5 -64t-87.5 -42q-22 -6 -70 -8t-60 2q-5 2 -21 5q-14 3 -25 14.5t-11 23.5q0 17 15 22.5t66 5.5q63 0 93.5 12t40.5 23q6 7 5.5 10
t-10.5 9q-38 25 -112 36q-29 4 -40.5 8t-20.5 14q-39 39 17 76q77 52 77 91q0 11 -9 14q-19 7 -43.5 -1.5t-24.5 -23.5q0 -32 -30 -32q-21 0 -30 16.5t-2 40t28 42.5q43 41 101.5 35z" />
    <glyph glyph-name="periodcentered" unicode="&#xb7;" horiz-adv-x="151" 
d="M82 390q30 -12 38 -45.5t-18 -59.5q-16 -14 -37.5 -17t-36.5 7q-31 21 -27.5 59t38.5 54q22 10 43 2z" />
    <glyph glyph-name="uni00B9" unicode="&#xb9;" horiz-adv-x="218" 
d="M101 822q26 7 43 -17.5t29 -85.5q15 -72 15.5 -198t-13.5 -141q-8 -8 -23.5 -7.5t-23.5 9.5q-15 16 -31 232q-6 77 -9 92l-3 15l-26 -15q-18 -10 -24.5 -11.5t-15.5 4.5q-25 13 -17 38q3 11 44 46.5t55 38.5z" />
    <glyph glyph-name="ordmasculine" unicode="&#xba;" horiz-adv-x="327" 
d="M144.5 753.5q-27.5 -1.5 -50.5 -63.5q-15 -40 -16.5 -85t11.5 -73q12 -29 39 -40.5t42 5.5q29 32 34 113q2 36 0.5 50.5t-8.5 33.5q-24 61 -51.5 59.5zM161 835q19 0 33 -7q18 -9 43 -37t37 -52q32 -65 21.5 -157.5t-57.5 -145.5q-51 -58 -128 -31q-58 20 -86 69.5
t-23 122.5q2 39 21.5 102.5t36.5 85.5q16 23 45 37t57 13z" />
    <glyph glyph-name="guillemotright" unicode="&#xbb;" horiz-adv-x="744" 
d="M407 629q19 0 90.5 -50.5t138 -109.5t73.5 -80q41 -118 -205 -269q-38 -23 -73 -40t-46 -17q-26 0 -46.5 18.5t-20.5 42t22.5 48t99.5 86.5q84 67 91 78q3 4 -22.5 33t-64.5 66q-58 55 -75.5 77.5t-17.5 43.5q0 29 17 51t39 22zM89 629q19 0 90 -50.5t137.5 -109.5
t74.5 -80q41 -118 -206 -269q-37 -23 -72 -40t-46 -17q-26 0 -46.5 18.5t-20.5 42t22.5 48t99.5 86.5q84 67 90 78q3 4 -22.5 33t-63.5 66q-58 55 -75.5 77.5t-17.5 43.5q0 29 17 51t39 22z" />
    <glyph glyph-name="questiondown" unicode="&#xbf;" horiz-adv-x="505" 
d="M264 725q-19 1 -38 20q-31 31 -14.5 67t62.5 36q30 0 43 -13q16 -15 12 -48t-23 -47q-23 -16 -42 -15zM285 -16q-15 0 -41 2q-173 11 -228 144q-59 140 105 335q26 31 48 64.5t27 48.5q17 53 47.5 69.5t59.5 -11.5q14 -14 15.5 -58t-10.5 -77q-11 -29 -78 -128
q-60 -88 -72.5 -136.5t18.5 -76.5q24 -23 66.5 -32.5t75 -1t32.5 31.5q0 19 20 35.5t43 16.5q29 0 46.5 -23t16 -57t-22.5 -63q-9 -13 -32 -30t-46 -28q-29 -15 -47 -20t-43 -5z" />
    <glyph glyph-name="Agrave" unicode="&#xc0;" horiz-adv-x="568" 
d="M235 572q-5 0 -39.5 -143t-33.5 -163q0 -12 90 -6t93 8q8 6 -46 155t-64 149zM214 834q53 -1 108.5 -67t101 -182t68.5 -255q12 -72 26 -99.5t7.5 -44t6.5 -76.5q11 -52 3 -77t-39 -33q-27 -7 -50.5 11t-34.5 53l-12 40h-134q-134 0 -135 -10t-3 -38q-3 -46 -39.5 -63.5
t-64.5 13.5q-25 28 -22.5 130t34.5 323q16 112 29 176.5t31.5 108t40.5 61.5t56 27q11 3 22 2z" />
    <glyph glyph-name="Aacute" unicode="&#xc1;" horiz-adv-x="568" 
d="M235 572q-5 0 -39.5 -143t-33.5 -163q0 -12 90 -6t93 8q8 6 -46 155t-64 149zM214 834q53 -1 108.5 -67t101 -182t68.5 -255q12 -72 26 -99.5t7.5 -44t6.5 -76.5q11 -52 3 -77t-39 -33q-27 -7 -50.5 11t-34.5 53l-12 40h-134q-134 0 -135 -10t-3 -38q-3 -46 -39.5 -63.5
t-64.5 13.5q-25 28 -22.5 130t34.5 323q16 112 29 176.5t31.5 108t40.5 61.5t56 27q11 3 22 2z" />
    <glyph glyph-name="Acircumflex" unicode="&#xc2;" horiz-adv-x="568" 
d="M235 572q-5 0 -39.5 -143t-33.5 -163q0 -12 90 -6t93 8q8 6 -46 155t-64 149zM214 834q53 -1 108.5 -67t101 -182t68.5 -255q12 -72 26 -99.5t7.5 -44t6.5 -76.5q11 -52 3 -77t-39 -33q-27 -7 -50.5 11t-34.5 53l-12 40h-134q-134 0 -135 -10t-3 -38q-3 -46 -39.5 -63.5
t-64.5 13.5q-25 28 -22.5 130t34.5 323q16 112 29 176.5t31.5 108t40.5 61.5t56 27q11 3 22 2z" />
    <glyph glyph-name="Atilde" unicode="&#xc3;" horiz-adv-x="568" 
d="M235 572q-5 0 -39.5 -143t-33.5 -163q0 -12 90 -6t93 8q8 6 -46 155t-64 149zM214 834q53 -1 108.5 -67t101 -182t68.5 -255q12 -72 26 -99.5t7.5 -44t6.5 -76.5q11 -52 3 -77t-39 -33q-27 -7 -50.5 11t-34.5 53l-12 40h-134q-134 0 -135 -10t-3 -38q-3 -46 -39.5 -63.5
t-64.5 13.5q-25 28 -22.5 130t34.5 323q16 112 29 176.5t31.5 108t40.5 61.5t56 27q11 3 22 2z" />
    <glyph glyph-name="Adieresis" unicode="&#xc4;" horiz-adv-x="568" 
d="M235 572q-5 0 -39.5 -143t-33.5 -163q0 -12 90 -6t93 8q8 6 -46 155t-64 149zM214 834q53 -1 108.5 -67t101 -182t68.5 -255q12 -72 26 -99.5t7.5 -44t6.5 -76.5q11 -52 3 -77t-39 -33q-27 -7 -50.5 11t-34.5 53l-12 40h-134q-134 0 -135 -10t-3 -38q-3 -46 -39.5 -63.5
t-64.5 13.5q-25 28 -22.5 130t34.5 323q16 112 29 176.5t31.5 108t40.5 61.5t56 27q11 3 22 2z" />
    <glyph glyph-name="Aring" unicode="&#xc5;" horiz-adv-x="568" 
d="M235 572q-5 0 -39.5 -143t-33.5 -163q0 -12 90 -6t93 8q8 6 -46 155t-64 149zM214 834q53 -1 108.5 -67t101 -182t68.5 -255q12 -72 26 -99.5t7.5 -44t6.5 -76.5q11 -52 3 -77t-39 -33q-27 -7 -50.5 11t-34.5 53l-12 40h-134q-134 0 -135 -10t-3 -38q-3 -46 -39.5 -63.5
t-64.5 13.5q-25 28 -22.5 130t34.5 323q16 112 29 176.5t31.5 108t40.5 61.5t56 27q11 3 22 2z" />
    <glyph glyph-name="AE" unicode="&#xc6;" horiz-adv-x="943" 
d="M287 668q-13 0 -63.5 -116t-50.5 -147q0 -9 23 -8q20 1 97 11q92 13 95 15q7 6 -42 125.5t-59 119.5zM237 867l57 -6q58 -6 232 -11q98 -2 145.5 -7.5t69 -17t27.5 -34.5q13 -52 -29.5 -76t-163.5 -32l-94 -7l25 -72q25 -71 37 -118l11 -46h120q78 0 102 -4t39 -18
q20 -20 20.5 -46.5t-18.5 -43.5q-19 -18 -126 -34t-109 -19.5t7 -79.5l10 -76h127q78 0 108.5 -4t48.5 -16q23 -14 29 -42t-8 -50q-19 -29 -130 -40.5t-193 6.5q-60 14 -83.5 45t-43.5 125l-23 112h-121q-121 0 -147 7q-18 5 -21 -3t1 -60q5 -69 13 -100q9 -31 -10.5 -52.5
t-50.5 -20t-52 28.5q-28 35 -37 87.5t-4 150.5q8 160 56 300t121 215z" />
    <glyph glyph-name="Ccedilla" unicode="&#xc7;" horiz-adv-x="660" 
d="M410.5 793q43.5 -2 77.5 -29q31 -25 40 -58t-7 -62q-33 -57 -89 -17q-30 22 -60 14q-35 -9 -81.5 -52.5t-73.5 -92.5q-60 -107 -41 -194.5t111 -128.5q49 -21 97 -16t109 39q55 31 80 33t44 -24q30 -40 -6 -89t-128 -93q-48 -23 -73 -28.5t-73 -4.5q-81 3 -150.5 40
t-114.5 96t-63 137.5t-1 160.5q25 117 108 216t185 133q66 22 109.5 20z" />
    <glyph glyph-name="Egrave" unicode="&#xc8;" horiz-adv-x="605" 
d="M128 901q26 -4 42 -24q15 -19 30 -21.5t77 3.5q126 12 191 -4.5t65 -61.5q0 -92 -253 -92h-117v-68v-68l156 7q139 6 188 -0.5t61 -33.5q13 -28 3.5 -54.5t-35.5 -36.5q-90 -35 -254 -35h-108v-57q1 -133 49 -165.5t182 10.5q72 23 104.5 18.5t40.5 -39.5q10 -37 -10 -58
t-102 -61q-100 -48 -164 -52t-134 32q-33 17 -53 36t-39 51q-32 52 -40 98t-8 171q0 195 21.5 336.5t54.5 158.5q26 14 52 10z" />
    <glyph glyph-name="Eacute" unicode="&#xc9;" horiz-adv-x="605" 
d="M128 901q26 -4 42 -24q15 -19 30 -21.5t77 3.5q126 12 191 -4.5t65 -61.5q0 -92 -253 -92h-117v-68v-68l156 7q139 6 188 -0.5t61 -33.5q13 -28 3.5 -54.5t-35.5 -36.5q-90 -35 -254 -35h-108v-57q1 -133 49 -165.5t182 10.5q72 23 104.5 18.5t40.5 -39.5q10 -37 -10 -58
t-102 -61q-100 -48 -164 -52t-134 32q-33 17 -53 36t-39 51q-32 52 -40 98t-8 171q0 195 21.5 336.5t54.5 158.5q26 14 52 10z" />
    <glyph glyph-name="Ecircumflex" unicode="&#xca;" horiz-adv-x="605" 
d="M128 901q26 -4 42 -24q15 -19 30 -21.5t77 3.5q126 12 191 -4.5t65 -61.5q0 -92 -253 -92h-117v-68v-68l156 7q139 6 188 -0.5t61 -33.5q13 -28 3.5 -54.5t-35.5 -36.5q-90 -35 -254 -35h-108v-57q1 -133 49 -165.5t182 10.5q72 23 104.5 18.5t40.5 -39.5q10 -37 -10 -58
t-102 -61q-100 -48 -164 -52t-134 32q-33 17 -53 36t-39 51q-32 52 -40 98t-8 171q0 195 21.5 336.5t54.5 158.5q26 14 52 10z" />
    <glyph glyph-name="Edieresis" unicode="&#xcb;" horiz-adv-x="605" 
d="M128 901q26 -4 42 -24q15 -19 30 -21.5t77 3.5q126 12 191 -4.5t65 -61.5q0 -92 -253 -92h-117v-68v-68l156 7q139 6 188 -0.5t61 -33.5q13 -28 3.5 -54.5t-35.5 -36.5q-90 -35 -254 -35h-108v-57q1 -133 49 -165.5t182 10.5q72 23 104.5 18.5t40.5 -39.5q10 -37 -10 -58
t-102 -61q-100 -48 -164 -52t-134 32q-33 17 -53 36t-39 51q-32 52 -40 98t-8 171q0 195 21.5 336.5t54.5 158.5q26 14 52 10z" />
    <glyph glyph-name="Igrave" unicode="&#xcc;" horiz-adv-x="295" 
d="M106 868q21 0 50 -16q19 -11 23.5 -33t4.5 -106q-1 -123 28 -259q29 -135 44 -269q11 -89 9.5 -115.5t-16.5 -44.5q-20 -25 -57.5 -28t-61.5 19q-16 14 -47.5 114t-62.5 236q-18 77 -20 212.5t14 191.5q11 39 38.5 68.5t53.5 29.5z" />
    <glyph glyph-name="Iacute" unicode="&#xcd;" horiz-adv-x="295" 
d="M106 868q21 0 50 -16q19 -11 23.5 -33t4.5 -106q-1 -123 28 -259q29 -135 44 -269q11 -89 9.5 -115.5t-16.5 -44.5q-20 -25 -57.5 -28t-61.5 19q-16 14 -47.5 114t-62.5 236q-18 77 -20 212.5t14 191.5q11 39 38.5 68.5t53.5 29.5z" />
    <glyph glyph-name="Icircumflex" unicode="&#xce;" horiz-adv-x="295" 
d="M106 868q21 0 50 -16q19 -11 23.5 -33t4.5 -106q-1 -123 28 -259q29 -135 44 -269q11 -89 9.5 -115.5t-16.5 -44.5q-20 -25 -57.5 -28t-61.5 19q-16 14 -47.5 114t-62.5 236q-18 77 -20 212.5t14 191.5q11 39 38.5 68.5t53.5 29.5z" />
    <glyph glyph-name="Idieresis" unicode="&#xcf;" horiz-adv-x="295" 
d="M106 868q21 0 50 -16q19 -11 23.5 -33t4.5 -106q-1 -123 28 -259q29 -135 44 -269q11 -89 9.5 -115.5t-16.5 -44.5q-20 -25 -57.5 -28t-61.5 19q-16 14 -47.5 114t-62.5 236q-18 77 -20 212.5t14 191.5q11 39 38.5 68.5t53.5 29.5z" />
    <glyph glyph-name="Eth" unicode="&#xd0;" horiz-adv-x="835" 
d="M292 669v-217q45 -5 57 -16q17 -15 18.5 -39t-13 -44t-63.5 -30q0 -130 13 -150t75 6q15 6 24 9q101 36 153 97t51 142q0 53 -24.5 106.5t-58.5 76t-93 41t-98 18.5h-41zM227 846q23 2 43 -11q27 -16 119 -23q188 -15 295 -107.5t119 -250.5q6 -78 -8 -129t-61 -116
q-55 -78 -148 -127.5t-208 -62.5q-38 -4 -58 -11.5t-32 -22.5q-17 -19 -48 -24.5t-52 6.5q-17 11 -31.5 46t-35.5 111q-21 84 -26 203l-8 2q-64 14 -81.5 44t18.5 65q11 11 18.5 15.5t22.5 6.5q12 1 32 1q6 108 25 195q27 117 44 149q16 30 47 38q6 2 14 3z" />
    <glyph glyph-name="Ntilde" unicode="&#xd1;" horiz-adv-x="744" 
d="M617 859q42 4 54.5 -15.5t12.5 -93.5q0 -87 17 -279q16 -148 13.5 -236.5t-20 -128t-59.5 -60.5q-40 -19 -84.5 2.5t-121.5 97.5q-70 70 -122.5 140.5t-105.5 166.5q-34 62 -35 57q0 -1 1 -3q7 -22 13 -248q4 -155 2 -193.5t-15 -53.5q-20 -22 -51 -21.5t-46 24.5
q-28 42 -52 250.5t-16 334.5q8 124 33 181.5t71 57.5q29 0 66.5 -46.5t101.5 -160.5q56 -100 105.5 -171t109.5 -137l59 -64v265q0 124 1.5 180.5t9.5 96t20 47.5t38 10z" />
    <glyph glyph-name="Ograve" unicode="&#xd2;" horiz-adv-x="822" 
d="M418 670.5q-8 -0.5 -18 -12.5q-8 -10 -22 -12t-43 2q-35 4 -48.5 -1t-43.5 -36q-54 -56 -73 -148t10 -159q23 -54 81.5 -85.5t130.5 -30t130 37.5q23 13 46.5 34.5t34.5 36.5q17 25 21 43.5t1 58.5q-6 62 -25 99q-19 36 -72 92t-82 71q-20 10 -28 9.5zM378 820
q14 0 26 -1q56 -7 117 -36q67 -32 134.5 -100.5t100.5 -138.5q24 -49 30 -78t6 -96t-5 -92.5t-25 -59.5q-31 -52 -86.5 -100.5t-113.5 -74.5q-57 -26 -141 -32t-146 12q-86 24 -151 77.5t-100 129.5q-14 30 -19 61.5t-5 94.5q0 72 5.5 101t30.5 80q41 86 113 153.5t123 67.5
q17 0 45 18q22 14 61 14z" />
    <glyph glyph-name="Oacute" unicode="&#xd3;" horiz-adv-x="822" 
d="M418 670.5q-8 -0.5 -18 -12.5q-8 -10 -22 -12t-43 2q-35 4 -48.5 -1t-43.5 -36q-54 -56 -73 -148t10 -159q23 -54 81.5 -85.5t130.5 -30t130 37.5q23 13 46.5 34.5t34.5 36.5q17 25 21 43.5t1 58.5q-6 62 -25 99q-19 36 -72 92t-82 71q-20 10 -28 9.5zM378 820
q14 0 26 -1q56 -7 117 -36q67 -32 134.5 -100.5t100.5 -138.5q24 -49 30 -78t6 -96t-5 -92.5t-25 -59.5q-31 -52 -86.5 -100.5t-113.5 -74.5q-57 -26 -141 -32t-146 12q-86 24 -151 77.5t-100 129.5q-14 30 -19 61.5t-5 94.5q0 72 5.5 101t30.5 80q41 86 113 153.5t123 67.5
q17 0 45 18q22 14 61 14z" />
    <glyph glyph-name="Ocircumflex" unicode="&#xd4;" horiz-adv-x="822" 
d="M418 670.5q-8 -0.5 -18 -12.5q-8 -10 -22 -12t-43 2q-35 4 -48.5 -1t-43.5 -36q-54 -56 -73 -148t10 -159q23 -54 81.5 -85.5t130.5 -30t130 37.5q23 13 46.5 34.5t34.5 36.5q17 25 21 43.5t1 58.5q-6 62 -25 99q-19 36 -72 92t-82 71q-20 10 -28 9.5zM378 820
q14 0 26 -1q56 -7 117 -36q67 -32 134.5 -100.5t100.5 -138.5q24 -49 30 -78t6 -96t-5 -92.5t-25 -59.5q-31 -52 -86.5 -100.5t-113.5 -74.5q-57 -26 -141 -32t-146 12q-86 24 -151 77.5t-100 129.5q-14 30 -19 61.5t-5 94.5q0 72 5.5 101t30.5 80q41 86 113 153.5t123 67.5
q17 0 45 18q22 14 61 14z" />
    <glyph glyph-name="Otilde" unicode="&#xd5;" horiz-adv-x="822" 
d="M418 670.5q-8 -0.5 -18 -12.5q-8 -10 -22 -12t-43 2q-35 4 -48.5 -1t-43.5 -36q-54 -56 -73 -148t10 -159q23 -54 81.5 -85.5t130.5 -30t130 37.5q23 13 46.5 34.5t34.5 36.5q17 25 21 43.5t1 58.5q-6 62 -25 99q-19 36 -72 92t-82 71q-20 10 -28 9.5zM378 820
q14 0 26 -1q56 -7 117 -36q67 -32 134.5 -100.5t100.5 -138.5q24 -49 30 -78t6 -96t-5 -92.5t-25 -59.5q-31 -52 -86.5 -100.5t-113.5 -74.5q-57 -26 -141 -32t-146 12q-86 24 -151 77.5t-100 129.5q-14 30 -19 61.5t-5 94.5q0 72 5.5 101t30.5 80q41 86 113 153.5t123 67.5
q17 0 45 18q22 14 61 14z" />
    <glyph glyph-name="Odieresis" unicode="&#xd6;" horiz-adv-x="822" 
d="M418 670.5q-8 -0.5 -18 -12.5q-8 -10 -22 -12t-43 2q-35 4 -48.5 -1t-43.5 -36q-54 -56 -73 -148t10 -159q23 -54 81.5 -85.5t130.5 -30t130 37.5q23 13 46.5 34.5t34.5 36.5q17 25 21 43.5t1 58.5q-6 62 -25 99q-19 36 -72 92t-82 71q-20 10 -28 9.5zM378 820
q14 0 26 -1q56 -7 117 -36q67 -32 134.5 -100.5t100.5 -138.5q24 -49 30 -78t6 -96t-5 -92.5t-25 -59.5q-31 -52 -86.5 -100.5t-113.5 -74.5q-57 -26 -141 -32t-146 12q-86 24 -151 77.5t-100 129.5q-14 30 -19 61.5t-5 94.5q0 72 5.5 101t30.5 80q41 86 113 153.5t123 67.5
q17 0 45 18q22 14 61 14z" />
    <glyph glyph-name="multiply" unicode="&#xd7;" horiz-adv-x="415" 
d="M18.5 548.5q12.5 9.5 45.5 9.5q22 0 37.5 -8t38.5 -31l39 -39l39 39q23 23 38.5 31t38.5 8q54 0 62.5 -36t-30.5 -95l-36 -54l49 -58q29 -34 38.5 -58t5.5 -39t-20 -31q-22 -21 -37 -24q-17 -4 -43.5 10t-55.5 43q-20 20 -42 26.5t-37 2t-26 -15.5q-20 -20 -49.5 -22
t-47.5 16q-20 21 -18.5 48.5t23.5 50.5q12 12 16.5 18t9 18.5t-0.5 28t-19 36.5q-41 59 -36 87q5 29 17.5 38.5z" />
    <glyph glyph-name="Oslash" unicode="&#xd8;" horiz-adv-x="822" 
d="M418 670.5q-8 -0.5 -18 -12.5q-8 -10 -22 -12t-43 2q-35 4 -48.5 -1t-43.5 -36q-54 -56 -73 -148t10 -159q23 -54 81.5 -85.5t130.5 -30t130 37.5q23 13 46.5 34.5t34.5 36.5q17 25 21 43.5t1 58.5q-6 62 -25 99q-19 36 -72 92t-82 71q-20 10 -28 9.5zM378 820
q14 0 26 -1q56 -7 117 -36q67 -32 134.5 -100.5t100.5 -138.5q24 -49 30 -78t6 -96t-5 -92.5t-25 -59.5q-31 -52 -86.5 -100.5t-113.5 -74.5q-57 -26 -141 -32t-146 12q-86 24 -151 77.5t-100 129.5q-14 30 -19 61.5t-5 94.5q0 72 5.5 101t30.5 80q41 86 113 153.5t123 67.5
q17 0 45 18q22 14 61 14z" />
    <glyph glyph-name="Ugrave" unicode="&#xd9;" horiz-adv-x="704" 
d="M602 825q28 -6 48 -39q18 -29 23 -179t-9 -240q-16 -99 -55 -175t-93.5 -118t-123 -52.5t-141.5 21.5q-114 46 -182.5 184t-68.5 321q0 88 23.5 159.5t60.5 101.5t74 4q55 -38 17 -104q-27 -46 -30 -101t17 -138q30 -127 82 -196.5t117 -70.5q29 0 62.5 31t53.5 77
q25 53 41 162t13 203q-2 72 1.5 93.5t18.5 38.5q23 23 51 17z" />
    <glyph glyph-name="Uacute" unicode="&#xda;" horiz-adv-x="704" 
d="M602 825q28 -6 48 -39q18 -29 23 -179t-9 -240q-16 -99 -55 -175t-93.5 -118t-123 -52.5t-141.5 21.5q-114 46 -182.5 184t-68.5 321q0 88 23.5 159.5t60.5 101.5t74 4q55 -38 17 -104q-27 -46 -30 -101t17 -138q30 -127 82 -196.5t117 -70.5q29 0 62.5 31t53.5 77
q25 53 41 162t13 203q-2 72 1.5 93.5t18.5 38.5q23 23 51 17z" />
    <glyph glyph-name="Ucircumflex" unicode="&#xdb;" horiz-adv-x="704" 
d="M602 825q28 -6 48 -39q18 -29 23 -179t-9 -240q-16 -99 -55 -175t-93.5 -118t-123 -52.5t-141.5 21.5q-114 46 -182.5 184t-68.5 321q0 88 23.5 159.5t60.5 101.5t74 4q55 -38 17 -104q-27 -46 -30 -101t17 -138q30 -127 82 -196.5t117 -70.5q29 0 62.5 31t53.5 77
q25 53 41 162t13 203q-2 72 1.5 93.5t18.5 38.5q23 23 51 17z" />
    <glyph glyph-name="Udieresis" unicode="&#xdc;" horiz-adv-x="704" 
d="M602 825q28 -6 48 -39q18 -29 23 -179t-9 -240q-16 -99 -55 -175t-93.5 -118t-123 -52.5t-141.5 21.5q-114 46 -182.5 184t-68.5 321q0 88 23.5 159.5t60.5 101.5t74 4q55 -38 17 -104q-27 -46 -30 -101t17 -138q30 -127 82 -196.5t117 -70.5q29 0 62.5 31t53.5 77
q25 53 41 162t13 203q-2 72 1.5 93.5t18.5 38.5q23 23 51 17z" />
    <glyph glyph-name="Yacute" unicode="&#xdd;" horiz-adv-x="606" 
d="M59 852q26 0 42.5 -16t35.5 -59q20 -45 59 -116.5t72 -123.5t37 -47q7 8 33 73q50 131 99 210q24 38 44 58q20 21 35 21q23 0 42 -20t19 -46q0 -35 -50.5 -191t-89.5 -238q-36 -78 -44 -110.5t-12 -116.5q-4 -75 -8.5 -99.5t-18.5 -34.5q-21 -15 -45 -14t-40 18
q-16 19 -28 66q-12 49 -23 141q-8 66 -16.5 92.5t-33.5 61.5q-50 70 -109 215.5t-59 200.5q0 25 19.5 50t39.5 25z" />
    <glyph glyph-name="Thorn" unicode="&#xde;" horiz-adv-x="602" 
d="M245 480q-24 -1 -39 -7q-18 -6 -26.5 -13.5t-5.5 -14.5q6 -15 6 -63q0 -30 4 -39.5t20 -12.5q34 -6 56 -5.5t54 9.5q23 7 42.5 18.5t31 25.5t17 28t1 27t-18.5 20q-34 18 -92 25q-28 3 -50 2zM76 964q19 1 34.5 -9.5t23.5 -30.5q11 -30 16.5 -169.5t9.5 -143.5t53 7
q53 12 130 3.5t126 -32.5q44 -21 71 -58.5t31.5 -81t-8 -88t-46 -85t-82.5 -66.5q-27 -15 -54.5 -19t-94.5 -4l-106 1v-90q0 -58 -4 -78.5t-18 -34.5q-21 -20 -43.5 -20.5t-42.5 19.5q-15 15 -24.5 62.5t-33.5 232.5q-14 110 -14 357.5t15 282.5q9 21 25.5 32.5t35.5 12.5z
" />
    <glyph glyph-name="germandbls" unicode="&#xdf;" horiz-adv-x="688" 
d="M212 742q-33 0 -41.5 -16.5t-8.5 -82.5q0 -56 10 -56.5t46 55.5q31 50 31 75q0 16 -6.5 20.5t-30.5 4.5zM238 914q39 -3 71 -18q39 -18 60 -39.5t38 -62.5q34 -83 -11 -181q-27 -58 -27 -62t62 -34q26 -13 64 -41t66 -55q42 -40 58 -64.5t28 -63.5q29 -103 -12 -184
q-15 -29 -51 -59t-78.5 -51.5t-88 -36.5t-80.5 -14t-55 16q-17 16 -20.5 38.5t8.5 41.5q9 15 72 35q68 23 113 51t51 52q25 98 -128 180q-42 22 -70 29.5t-74 9.5l-75 2l6 -170q7 -171 24 -269q0 -2 1 -7q7 -41 9 -57t4.5 -33t-0.5 -23.5t-6 -11.5t-12 -13q-1 -1 -1 -2
q-20 -20 -43 -20.5t-42 18.5q-34 34 -62 231t-35 441q-5 191 2.5 254.5t39.5 104.5q29 36 83 55t111 13z" />
    <glyph glyph-name="agrave" unicode="&#xe0;" horiz-adv-x="508" 
d="M260 485l-21 -40q-20 -40 -18.5 -48t30.5 -8q32 0 32 16t-12 48zM262 724q30 2 59 -12q63 -32 98 -127t49 -273q12 -155 10.5 -214.5t-19.5 -76.5q-19 -18 -47 -18t-42 17q-15 18 -32 105l-18 88l-88 3l-88 3l-7 -39q-7 -38 0 -57q8 -22 -1 -48t-29 -35q-24 -12 -49 -2
t-42 38q-31 49 -4.5 204t87.5 281q76 157 163 163z" />
    <glyph glyph-name="aacute" unicode="&#xe1;" horiz-adv-x="508" 
d="M260 485l-21 -40q-20 -40 -18.5 -48t30.5 -8q32 0 32 16t-12 48zM262 724q30 2 59 -12q63 -32 98 -127t49 -273q12 -155 10.5 -214.5t-19.5 -76.5q-19 -18 -47 -18t-42 17q-15 18 -32 105l-18 88l-88 3l-88 3l-7 -39q-7 -38 0 -57q8 -22 -1 -48t-29 -35q-24 -12 -49 -2
t-42 38q-31 49 -4.5 204t87.5 281q76 157 163 163z" />
    <glyph glyph-name="acircumflex" unicode="&#xe2;" horiz-adv-x="508" 
d="M260 485l-21 -40q-20 -40 -18.5 -48t30.5 -8q32 0 32 16t-12 48zM262 724q30 2 59 -12q63 -32 98 -127t49 -273q12 -155 10.5 -214.5t-19.5 -76.5q-19 -18 -47 -18t-42 17q-15 18 -32 105l-18 88l-88 3l-88 3l-7 -39q-7 -38 0 -57q8 -22 -1 -48t-29 -35q-24 -12 -49 -2
t-42 38q-31 49 -4.5 204t87.5 281q76 157 163 163z" />
    <glyph glyph-name="atilde" unicode="&#xe3;" horiz-adv-x="508" 
d="M260 485l-21 -40q-20 -40 -18.5 -48t30.5 -8q32 0 32 16t-12 48zM262 724q30 2 59 -12q63 -32 98 -127t49 -273q12 -155 10.5 -214.5t-19.5 -76.5q-19 -18 -47 -18t-42 17q-15 18 -32 105l-18 88l-88 3l-88 3l-7 -39q-7 -38 0 -57q8 -22 -1 -48t-29 -35q-24 -12 -49 -2
t-42 38q-31 49 -4.5 204t87.5 281q76 157 163 163z" />
    <glyph glyph-name="adieresis" unicode="&#xe4;" horiz-adv-x="508" 
d="M260 485l-21 -40q-20 -40 -18.5 -48t30.5 -8q32 0 32 16t-12 48zM262 724q30 2 59 -12q63 -32 98 -127t49 -273q12 -155 10.5 -214.5t-19.5 -76.5q-19 -18 -47 -18t-42 17q-15 18 -32 105l-18 88l-88 3l-88 3l-7 -39q-7 -38 0 -57q8 -22 -1 -48t-29 -35q-24 -12 -49 -2
t-42 38q-31 49 -4.5 204t87.5 281q76 157 163 163z" />
    <glyph glyph-name="aring" unicode="&#xe5;" horiz-adv-x="508" 
d="M260 485l-21 -40q-20 -40 -18.5 -48t30.5 -8q32 0 32 16t-12 48zM262 724q30 2 59 -12q63 -32 98 -127t49 -273q12 -155 10.5 -214.5t-19.5 -76.5q-19 -18 -47 -18t-42 17q-15 18 -32 105l-18 88l-88 3l-88 3l-7 -39q-7 -38 0 -57q8 -22 -1 -48t-29 -35q-24 -12 -49 -2
t-42 38q-31 49 -4.5 204t87.5 281q76 157 163 163z" />
    <glyph glyph-name="ae" unicode="&#xe6;" horiz-adv-x="817" 
d="M228 513q-8 0 -30 -49t-31 -85l-8 -31l48 7q47 7 76 13q22 4 23.5 9.5t-10.5 35.5q-15 36 -37 68t-31 32zM243 684q114 7 253 -7t168 -39q21 -20 19 -45.5t-27 -45.5q-18 -14 -41.5 -18.5t-84.5 -4.5q-40 0 -68 -0.5t-28 -1.5q0 -3 21 -68l20 -66l73 -5q41 -3 60 -9
t28 -18q29 -39 6.5 -71.5t-84.5 -44.5q-45 -8 -52 -13t-1 -21q3 -9 26.5 -14t79.5 -8q90 -6 125.5 -18t46.5 -40q22 -59 -48 -86q-89 -33 -246 5q-67 17 -87 34t-27 67q-3 18 -3.5 25t-5 17.5t-6 13.5t-11 7.5t-15 5t-23.5 1t-30 -0.5t-42 -3l-112 -7l8 -34q11 -48 7.5 -69
t-26.5 -38q-19 -14 -29.5 -16t-28.5 6q-37 17 -49 65.5t-8 159.5q7 145 43.5 247.5t95.5 137.5q25 15 103 20z" />
    <glyph glyph-name="ccedilla" unicode="&#xe7;" horiz-adv-x="522" 
d="M354 662q41 -5 57 -35q19 -37 1.5 -69.5t-58.5 -35.5q-37 -4 -88 -52q-87 -83 -81 -169q6 -68 55.5 -97t128.5 -10q59 15 77.5 10.5t34 -33t11.5 -48.5q-6 -26 -47.5 -52t-99.5 -40q-76 -18 -142 -1.5t-116 65.5q-34 34 -57 82t-29 97q-5 47 16 119.5t53 113.5
q56 74 139.5 118.5t144.5 36.5z" />
    <glyph glyph-name="egrave" unicode="&#xe8;" horiz-adv-x="494" 
d="M245 710q108 -2 156.5 -16.5t56.5 -47.5q13 -51 -36 -75.5t-163 -23.5h-101v-42q0 -30 4 -35.5t21 -0.5q40 12 104 14.5t93 -7.5q35 -12 48.5 -36.5t2.5 -54.5q-10 -26 -59.5 -45.5t-118.5 -24.5q-73 -6 -73 -9.5t12 -58.5q8 -40 15 -47t35 -7q39 0 108 12q47 9 61.5 8
t29.5 -15q38 -34 15.5 -72.5t-94.5 -62.5q-153 -51 -234 -13q-55 26 -81 82t-42 182q-9 87 -1 169.5t32 145t55 73.5q29 10 154 8z" />
    <glyph glyph-name="eacute" unicode="&#xe9;" horiz-adv-x="494" 
d="M245 710q108 -2 156.5 -16.5t56.5 -47.5q13 -51 -36 -75.5t-163 -23.5h-101v-42q0 -30 4 -35.5t21 -0.5q40 12 104 14.5t93 -7.5q35 -12 48.5 -36.5t2.5 -54.5q-10 -26 -59.5 -45.5t-118.5 -24.5q-73 -6 -73 -9.5t12 -58.5q8 -40 15 -47t35 -7q39 0 108 12q47 9 61.5 8
t29.5 -15q38 -34 15.5 -72.5t-94.5 -62.5q-153 -51 -234 -13q-55 26 -81 82t-42 182q-9 87 -1 169.5t32 145t55 73.5q29 10 154 8z" />
    <glyph glyph-name="ecircumflex" unicode="&#xea;" horiz-adv-x="494" 
d="M245 710q108 -2 156.5 -16.5t56.5 -47.5q13 -51 -36 -75.5t-163 -23.5h-101v-42q0 -30 4 -35.5t21 -0.5q40 12 104 14.5t93 -7.5q35 -12 48.5 -36.5t2.5 -54.5q-10 -26 -59.5 -45.5t-118.5 -24.5q-73 -6 -73 -9.5t12 -58.5q8 -40 15 -47t35 -7q39 0 108 12q47 9 61.5 8
t29.5 -15q38 -34 15.5 -72.5t-94.5 -62.5q-153 -51 -234 -13q-55 26 -81 82t-42 182q-9 87 -1 169.5t32 145t55 73.5q29 10 154 8z" />
    <glyph glyph-name="edieresis" unicode="&#xeb;" horiz-adv-x="494" 
d="M245 710q108 -2 156.5 -16.5t56.5 -47.5q13 -51 -36 -75.5t-163 -23.5h-101v-42q0 -30 4 -35.5t21 -0.5q40 12 104 14.5t93 -7.5q35 -12 48.5 -36.5t2.5 -54.5q-10 -26 -59.5 -45.5t-118.5 -24.5q-73 -6 -73 -9.5t12 -58.5q8 -40 15 -47t35 -7q39 0 108 12q47 9 61.5 8
t29.5 -15q38 -34 15.5 -72.5t-94.5 -62.5q-153 -51 -234 -13q-55 26 -81 82t-42 182q-9 87 -1 169.5t32 145t55 73.5q29 10 154 8z" />
    <glyph glyph-name="igrave" unicode="&#xec;" horiz-adv-x="223" 
d="M85 720.5q31 -1.5 46 -19.5q16 -20 23 -65q4 -29 21.5 -272.5t17.5 -276.5q0 -16 -23 -38t-40 -22q-19 0 -43 17q-23 17 -50 105.5t-35 171.5q-7 77 6.5 222.5t29.5 161.5q16 17 47 15.5z" />
    <glyph glyph-name="iacute" unicode="&#xed;" horiz-adv-x="223" 
d="M85 720.5q31 -1.5 46 -19.5q16 -20 23 -65q4 -29 21.5 -272.5t17.5 -276.5q0 -16 -23 -38t-40 -22q-19 0 -43 17q-23 17 -50 105.5t-35 171.5q-7 77 6.5 222.5t29.5 161.5q16 17 47 15.5z" />
    <glyph glyph-name="icircumflex" unicode="&#xee;" horiz-adv-x="223" 
d="M85 720.5q31 -1.5 46 -19.5q16 -20 23 -65q4 -29 21.5 -272.5t17.5 -276.5q0 -16 -23 -38t-40 -22q-19 0 -43 17q-23 17 -50 105.5t-35 171.5q-7 77 6.5 222.5t29.5 161.5q16 17 47 15.5z" />
    <glyph glyph-name="idieresis" unicode="&#xef;" horiz-adv-x="223" 
d="M85 720.5q31 -1.5 46 -19.5q16 -20 23 -65q4 -29 21.5 -272.5t17.5 -276.5q0 -16 -23 -38t-40 -22q-19 0 -43 17q-23 17 -50 105.5t-35 171.5q-7 77 6.5 222.5t29.5 161.5q16 17 47 15.5z" />
    <glyph glyph-name="eth" unicode="&#xf0;" horiz-adv-x="638" 
d="M323 486q-7 0 -15 -2q-31 -8 -40 -31t1 -67q0 -3 1 -7q65 -5 79 -17q17 -15 18.5 -39t-12.5 -44q-17 -23 -75 -32q1 -73 6 -79q9 -9 61 11t66 39q20 24 19 83.5t-21 105.5q-16 39 -39.5 59.5t-48.5 19.5zM345.5 644q60.5 0 95.5 -20q77 -43 122 -129.5t46 -193.5
q1 -99 -37.5 -162t-122.5 -100q-29 -13 -104 -22t-92 -1q-11 4 -42 12q-17 4 -28.5 16.5t-24.5 42.5q-25 61 -43 162q-14 2 -28 5q-64 14 -81.5 44t18.5 66q11 11 18.5 15.5t22.5 5.5q12 2 33 2q-3 45 -3 88q0 81 3.5 107t16.5 39q18 17 46.5 18t42.5 -16q8 -11 16.5 -11
t30.5 13q34 19 94.5 19z" />
    <glyph glyph-name="ntilde" unicode="&#xf1;" horiz-adv-x="626" 
d="M462 722q23 9 49 -5q16 -9 22.5 -24.5t11.5 -58.5q8 -66 30 -233q23 -170 22 -231.5t-28 -94.5q-17 -22 -31 -29t-40 -7q-28 0 -46.5 11t-57.5 50q-25 25 -66.5 76t-74.5 98l-80 113v-151q0 -101 -4 -129.5t-18 -44.5q-21 -22 -43.5 -22t-43.5 22q-52 56 -63 275
q-5 107 6.5 205.5t32.5 123.5q17 21 36.5 22.5t51 -21.5t73.5 -69.5t106 -127.5q94 -117 102 -123q3 -1 4.5 19t1.5 54.5v79.5q-2 87 1.5 130t13.5 63t32 29z" />
    <glyph glyph-name="ograve" unicode="&#xf2;" horiz-adv-x="623" 
d="M278 518q-40 0 -67 -37q-42 -54 -45.5 -124t32.5 -103q24 -21 61 -29t74 0q40 9 64 42t24.5 75t-22.5 87q-39 70 -95 86q-13 3 -26 3zM241 673q10 0 39 -2q126 -9 212 -97.5t100 -223.5q9 -82 -35 -165.5t-118 -125.5q-48 -27 -128 -30t-133 20q-104 46 -151 153t-14 222
q18 64 58 123t87 93q28 19 43.5 26t39.5 7z" />
    <glyph glyph-name="oacute" unicode="&#xf3;" horiz-adv-x="623" 
d="M278 518q-40 0 -67 -37q-42 -54 -45.5 -124t32.5 -103q24 -21 61 -29t74 0q40 9 64 42t24.5 75t-22.5 87q-39 70 -95 86q-13 3 -26 3zM241 673q10 0 39 -2q126 -9 212 -97.5t100 -223.5q9 -82 -35 -165.5t-118 -125.5q-48 -27 -128 -30t-133 20q-104 46 -151 153t-14 222
q18 64 58 123t87 93q28 19 43.5 26t39.5 7z" />
    <glyph glyph-name="ocircumflex" unicode="&#xf4;" horiz-adv-x="623" 
d="M278 518q-40 0 -67 -37q-42 -54 -45.5 -124t32.5 -103q24 -21 61 -29t74 0q40 9 64 42t24.5 75t-22.5 87q-39 70 -95 86q-13 3 -26 3zM241 673q10 0 39 -2q126 -9 212 -97.5t100 -223.5q9 -82 -35 -165.5t-118 -125.5q-48 -27 -128 -30t-133 20q-104 46 -151 153t-14 222
q18 64 58 123t87 93q28 19 43.5 26t39.5 7z" />
    <glyph glyph-name="otilde" unicode="&#xf5;" horiz-adv-x="623" 
d="M278 518q-40 0 -67 -37q-42 -54 -45.5 -124t32.5 -103q24 -21 61 -29t74 0q40 9 64 42t24.5 75t-22.5 87q-39 70 -95 86q-13 3 -26 3zM241 673q10 0 39 -2q126 -9 212 -97.5t100 -223.5q9 -82 -35 -165.5t-118 -125.5q-48 -27 -128 -30t-133 20q-104 46 -151 153t-14 222
q18 64 58 123t87 93q28 19 43.5 26t39.5 7z" />
    <glyph glyph-name="odieresis" unicode="&#xf6;" horiz-adv-x="623" 
d="M278 518q-40 0 -67 -37q-42 -54 -45.5 -124t32.5 -103q24 -21 61 -29t74 0q40 9 64 42t24.5 75t-22.5 87q-39 70 -95 86q-13 3 -26 3zM241 673q10 0 39 -2q126 -9 212 -97.5t100 -223.5q9 -82 -35 -165.5t-118 -125.5q-48 -27 -128 -30t-133 20q-104 46 -151 153t-14 222
q18 64 58 123t87 93q28 19 43.5 26t39.5 7z" />
    <glyph glyph-name="divide" unicode="&#xf7;" horiz-adv-x="397" 
d="M208 579q30 -12 38.5 -45.5t-18.5 -59.5q-16 -14 -37.5 -17t-36.5 7q-31 21 -27.5 59t39.5 54q21 10 42 2zM209 259q30 -12 38 -46t-18 -60q-16 -14 -37.5 -16.5t-36.5 7.5q-31 21 -27.5 59t38.5 54q22 10 43 2zM65 433q23 3 125 -1q140 -6 159 -23q17 -14 18.5 -38
t-12.5 -44q-21 -28 -101.5 -35.5t-166.5 10.5q-64 14 -81.5 44t18.5 66q11 10 18.5 14.5t22.5 6.5z" />
    <glyph glyph-name="oslash" unicode="&#xf8;" horiz-adv-x="623" 
d="M278 518q-40 0 -67 -37q-42 -54 -45.5 -124t32.5 -103q24 -21 61 -29t74 0q40 9 64 42t24.5 75t-22.5 87q-39 70 -95 86q-13 3 -26 3zM241 673q10 0 39 -2q126 -9 212 -97.5t100 -223.5q9 -82 -35 -165.5t-118 -125.5q-48 -27 -128 -30t-133 20q-104 46 -151 153t-14 222
q18 64 58 123t87 93q28 19 43.5 26t39.5 7z" />
    <glyph glyph-name="ugrave" unicode="&#xf9;" horiz-adv-x="538" 
d="M386 664q23 0 34.5 -7.5t24.5 -30.5q42 -72 57.5 -200.5t-7.5 -212.5q-14 -51 -45 -90.5t-71.5 -59t-87 -21.5t-91.5 21q-60 29 -108 98.5t-72.5 160t-18.5 179.5q10 130 81 137q42 5 55 -19.5t7 -96.5q-4 -52 -0.5 -80.5t18.5 -69.5q19 -53 60 -105.5t63 -52.5
q43 0 61 76t1 182q-18 105 -19.5 133t8.5 41q6 7 20.5 12.5t29.5 5.5z" />
    <glyph glyph-name="uacute" unicode="&#xfa;" horiz-adv-x="538" 
d="M386 664q23 0 34.5 -7.5t24.5 -30.5q42 -72 57.5 -200.5t-7.5 -212.5q-14 -51 -45 -90.5t-71.5 -59t-87 -21.5t-91.5 21q-60 29 -108 98.5t-72.5 160t-18.5 179.5q10 130 81 137q42 5 55 -19.5t7 -96.5q-4 -52 -0.5 -80.5t18.5 -69.5q19 -53 60 -105.5t63 -52.5
q43 0 61 76t1 182q-18 105 -19.5 133t8.5 41q6 7 20.5 12.5t29.5 5.5z" />
    <glyph glyph-name="ucircumflex" unicode="&#xfb;" horiz-adv-x="538" 
d="M386 664q23 0 34.5 -7.5t24.5 -30.5q42 -72 57.5 -200.5t-7.5 -212.5q-14 -51 -45 -90.5t-71.5 -59t-87 -21.5t-91.5 21q-60 29 -108 98.5t-72.5 160t-18.5 179.5q10 130 81 137q42 5 55 -19.5t7 -96.5q-4 -52 -0.5 -80.5t18.5 -69.5q19 -53 60 -105.5t63 -52.5
q43 0 61 76t1 182q-18 105 -19.5 133t8.5 41q6 7 20.5 12.5t29.5 5.5z" />
    <glyph glyph-name="udieresis" unicode="&#xfc;" horiz-adv-x="538" 
d="M386 664q23 0 34.5 -7.5t24.5 -30.5q42 -72 57.5 -200.5t-7.5 -212.5q-14 -51 -45 -90.5t-71.5 -59t-87 -21.5t-91.5 21q-60 29 -108 98.5t-72.5 160t-18.5 179.5q10 130 81 137q42 5 55 -19.5t7 -96.5q-4 -52 -0.5 -80.5t18.5 -69.5q19 -53 60 -105.5t63 -52.5
q43 0 61 76t1 182q-18 105 -19.5 133t8.5 41q6 7 20.5 12.5t29.5 5.5z" />
    <glyph glyph-name="yacute" unicode="&#xfd;" horiz-adv-x="501" 
d="M398 734q17 5 37.5 -6.5t27.5 -30t9 -77t-5 -168.5q-6 -176 -19 -285t-28 -126q-15 -16 -37.5 -20t-38.5 6q-45 28 -57 180l-8 92l-51 25q-88 42 -152 132.5t-73 184.5q-5 43 -1.5 55.5t23.5 25.5q28 20 52 10t50 -54q21 -36 88.5 -114t77.5 -78q7 0 21 71q31 163 84 177
z" />
    <glyph glyph-name="thorn" unicode="&#xfe;" horiz-adv-x="602" 
d="M245 480q-24 -1 -39 -7q-18 -6 -26.5 -13.5t-5.5 -14.5q6 -15 6 -63q0 -30 4 -39.5t20 -12.5q34 -6 56 -5.5t54 9.5q23 7 42.5 18.5t31 25.5t17 28t1 27t-18.5 20q-34 18 -92 25q-28 3 -50 2zM76 964q19 1 34.5 -9.5t23.5 -30.5q11 -30 16.5 -169.5t9.5 -143.5t53 7
q53 12 130 3.5t126 -32.5q44 -21 71 -58.5t31.5 -81t-8 -88t-46 -85t-82.5 -66.5q-27 -15 -54.5 -19t-94.5 -4l-106 1v-90q0 -58 -4 -78.5t-18 -34.5q-21 -20 -43.5 -20.5t-42.5 19.5q-15 15 -24.5 62.5t-33.5 232.5q-14 110 -14 357.5t15 282.5q9 21 25.5 32.5t35.5 12.5z
" />
    <glyph glyph-name="ydieresis" unicode="&#xff;" horiz-adv-x="501" 
d="M398 734q17 5 37.5 -6.5t27.5 -30t9 -77t-5 -168.5q-6 -176 -19 -285t-28 -126q-15 -16 -37.5 -20t-38.5 6q-45 28 -57 180l-8 92l-51 25q-88 42 -152 132.5t-73 184.5q-5 43 -1.5 55.5t23.5 25.5q28 20 52 10t50 -54q21 -36 88.5 -114t77.5 -78q7 0 21 71q31 163 84 177
z" />
    <glyph glyph-name="Amacron" unicode="&#x100;" 
 />
    <glyph glyph-name="amacron" unicode="&#x101;" 
 />
    <glyph glyph-name="Abreve" unicode="&#x102;" 
 />
    <glyph glyph-name="abreve" unicode="&#x103;" 
 />
    <glyph glyph-name="Aogonek" unicode="&#x104;" 
 />
    <glyph glyph-name="aogonek" unicode="&#x105;" 
 />
    <glyph glyph-name="Cacute" unicode="&#x106;" 
 />
    <glyph glyph-name="cacute" unicode="&#x107;" 
 />
    <glyph glyph-name="Ccircumflex" unicode="&#x108;" 
 />
    <glyph glyph-name="ccircumflex" unicode="&#x109;" 
 />
    <glyph glyph-name="Cdotaccent" unicode="&#x10a;" 
 />
    <glyph glyph-name="cdotaccent" unicode="&#x10b;" 
 />
    <glyph glyph-name="Ccaron" unicode="&#x10c;" 
 />
    <glyph glyph-name="ccaron" unicode="&#x10d;" 
 />
    <glyph glyph-name="Dcaron" unicode="&#x10e;" 
 />
    <glyph glyph-name="dcaron" unicode="&#x10f;" 
 />
    <glyph glyph-name="Dcroat" unicode="&#x110;" 
 />
    <glyph glyph-name="dcroat" unicode="&#x111;" 
 />
    <glyph glyph-name="Emacron" unicode="&#x112;" 
 />
    <glyph glyph-name="emacron" unicode="&#x113;" 
 />
    <glyph glyph-name="Ebreve" unicode="&#x114;" 
 />
    <glyph glyph-name="ebreve" unicode="&#x115;" 
 />
    <glyph glyph-name="Edotaccent" unicode="&#x116;" 
 />
    <glyph glyph-name="edotaccent" unicode="&#x117;" 
 />
    <glyph glyph-name="Eogonek" unicode="&#x118;" 
 />
    <glyph glyph-name="eogonek" unicode="&#x119;" 
 />
    <glyph glyph-name="Ecaron" unicode="&#x11a;" 
 />
    <glyph glyph-name="ecaron" unicode="&#x11b;" 
 />
    <glyph glyph-name="Gcircumflex" unicode="&#x11c;" 
 />
    <glyph glyph-name="gcircumflex" unicode="&#x11d;" 
 />
    <glyph glyph-name="Gbreve" unicode="&#x11e;" 
 />
    <glyph glyph-name="gbreve" unicode="&#x11f;" 
 />
    <glyph glyph-name="Gdotaccent" unicode="&#x120;" 
 />
    <glyph glyph-name="gdotaccent" unicode="&#x121;" 
 />
    <glyph glyph-name="uni0122" unicode="&#x122;" 
 />
    <glyph glyph-name="uni0123" unicode="&#x123;" 
 />
    <glyph glyph-name="Hcircumflex" unicode="&#x124;" 
 />
    <glyph glyph-name="hcircumflex" unicode="&#x125;" 
 />
    <glyph glyph-name="Hbar" unicode="&#x126;" 
 />
    <glyph glyph-name="hbar" unicode="&#x127;" 
 />
    <glyph glyph-name="Itilde" unicode="&#x128;" 
 />
    <glyph glyph-name="itilde" unicode="&#x129;" 
 />
    <glyph glyph-name="Imacron" unicode="&#x12a;" 
 />
    <glyph glyph-name="imacron" unicode="&#x12b;" 
 />
    <glyph glyph-name="Ibreve" unicode="&#x12c;" 
 />
    <glyph glyph-name="ibreve" unicode="&#x12d;" 
 />
    <glyph glyph-name="Iogonek" unicode="&#x12e;" 
 />
    <glyph glyph-name="iogonek" unicode="&#x12f;" 
 />
    <glyph glyph-name="Idotaccent" unicode="&#x130;" 
 />
    <glyph glyph-name="dotlessi" unicode="&#x131;" horiz-adv-x="223" 
d="M85 720.5q31 -1.5 46 -19.5q16 -20 23 -65q4 -29 21.5 -272.5t17.5 -276.5q0 -16 -23 -38t-40 -22q-19 0 -43 17q-23 17 -50 105.5t-35 171.5q-7 77 6.5 222.5t29.5 161.5q16 17 47 15.5z" />
    <glyph glyph-name="IJ" unicode="&#x132;" 
 />
    <glyph glyph-name="ij" unicode="&#x133;" 
 />
    <glyph glyph-name="Jcircumflex" unicode="&#x134;" 
 />
    <glyph glyph-name="jcircumflex" unicode="&#x135;" 
 />
    <glyph glyph-name="uni0136" unicode="&#x136;" 
 />
    <glyph glyph-name="uni0137" unicode="&#x137;" 
 />
    <glyph glyph-name="kgreenlandic" unicode="&#x138;" 
 />
    <glyph glyph-name="Lacute" unicode="&#x139;" 
 />
    <glyph glyph-name="lacute" unicode="&#x13a;" 
 />
    <glyph glyph-name="uni013B" unicode="&#x13b;" 
 />
    <glyph glyph-name="uni013C" unicode="&#x13c;" 
 />
    <glyph glyph-name="Lcaron" unicode="&#x13d;" 
 />
    <glyph glyph-name="lcaron" unicode="&#x13e;" 
 />
    <glyph glyph-name="Ldot" unicode="&#x13f;" 
 />
    <glyph glyph-name="ldot" unicode="&#x140;" 
 />
    <glyph glyph-name="Lslash" unicode="&#x141;" 
 />
    <glyph glyph-name="lslash" unicode="&#x142;" 
 />
    <glyph glyph-name="Nacute" unicode="&#x143;" 
 />
    <glyph glyph-name="nacute" unicode="&#x144;" 
 />
    <glyph glyph-name="uni0145" unicode="&#x145;" 
 />
    <glyph glyph-name="uni0146" unicode="&#x146;" 
 />
    <glyph glyph-name="Ncaron" unicode="&#x147;" 
 />
    <glyph glyph-name="ncaron" unicode="&#x148;" 
 />
    <glyph glyph-name="napostrophe" unicode="&#x149;" 
 />
    <glyph glyph-name="Eng" unicode="&#x14a;" 
 />
    <glyph glyph-name="eng" unicode="&#x14b;" 
 />
    <glyph glyph-name="Omacron" unicode="&#x14c;" 
 />
    <glyph glyph-name="omacron" unicode="&#x14d;" 
 />
    <glyph glyph-name="Obreve" unicode="&#x14e;" 
 />
    <glyph glyph-name="obreve" unicode="&#x14f;" 
 />
    <glyph glyph-name="Ohungarumlaut" unicode="&#x150;" 
 />
    <glyph glyph-name="ohungarumlaut" unicode="&#x151;" 
 />
    <glyph glyph-name="OE" unicode="&#x152;" horiz-adv-x="1018" 
d="M429 682q-41 0 -73.5 -19.5t-86.5 -75.5q-52 -54 -68.5 -97t-17.5 -120q0 -81 25.5 -125t89.5 -77q33 -18 84 -34t76 -17q12 -1 12 7q-1 8 -17 44q-30 69 -27.5 195t37.5 289q4 21 -1 25.5t-33 4.5zM614 845q80 -1 161 -10q80 -9 113.5 -25t42.5 -48q4 -18 -0.5 -28.5
t-21.5 -25.5q-51 -44 -215 -35q-86 5 -87 -1q-1 -9 -8 -102q-1 -8 -2 -22q-2 -19 -2.5 -26.5t0.5 -18.5t1.5 -14.5t7 -7.5t10.5 -4t17 1t22.5 3t32.5 6q17 3 27 5q90 17 152 14q40 -2 55 -8t30 -26q15 -21 16 -30.5t-10 -29.5q-19 -33 -96 -57t-168 -25h-96l7 -44
q5 -32 12.5 -50t22.5 -31.5t39.5 -17t63 -5.5t91.5 3q78 6 99 3.5t36 -17.5q31 -32 18 -66.5t-61 -48.5q-27 -8 -39 -17q-22 -18 -147.5 -37t-238.5 -23q-101 -3 -140.5 -0.5t-79.5 16.5q-95 31 -149.5 76t-94.5 124q-39 77 -34.5 192.5t50.5 200.5q23 44 85.5 105t115.5 92
q70 40 214 54q70 7 148 6z" />
    <glyph glyph-name="oe" unicode="&#x153;" horiz-adv-x="813" 
d="M343 537q-39 4 -79 -12t-67 -47q-29 -32 -34.5 -76.5t9 -86t48.5 -77.5t79 -52q44 -16 63 -17q12 -1 13.5 3.5t-6.5 18.5q-20 37 -19 134t22 192q2 8 -5.5 13t-23.5 7zM310 679q101 6 253 -0.5t174 -18.5q24 -13 35.5 -35.5t5.5 -43.5q-10 -31 -46 -44.5t-116 -14.5
l-99 -2l-3 -39l-4 -38l91 5q77 5 113 -5t50 -40q22 -49 -18 -75.5t-150 -36.5q-58 -5 -71 -17.5t11 -41.5q15 -19 42.5 -23t84.5 5q61 9 91 -4.5t30 -50.5q0 -46 -60.5 -73.5t-168.5 -31.5q-92 -3 -131 -15q-65 -21 -158 0q-82 18 -158 89t-97 148q-14 48 -10.5 118
t20.5 107q74 164 289 178z" />
    <glyph glyph-name="Racute" unicode="&#x154;" 
 />
    <glyph glyph-name="racute" unicode="&#x155;" 
 />
    <glyph glyph-name="uni0156" unicode="&#x156;" 
 />
    <glyph glyph-name="uni0157" unicode="&#x157;" 
 />
    <glyph glyph-name="Rcaron" unicode="&#x158;" 
 />
    <glyph glyph-name="rcaron" unicode="&#x159;" 
 />
    <glyph glyph-name="Sacute" unicode="&#x15a;" 
 />
    <glyph glyph-name="sacute" unicode="&#x15b;" 
 />
    <glyph glyph-name="Scircumflex" unicode="&#x15c;" 
 />
    <glyph glyph-name="scircumflex" unicode="&#x15d;" 
 />
    <glyph glyph-name="Scedilla" unicode="&#x15e;" 
 />
    <glyph glyph-name="scedilla" unicode="&#x15f;" 
 />
    <glyph glyph-name="Scaron" unicode="&#x160;" horiz-adv-x="743" 
d="M363 864q27 1 60.5 -6t58 -15.5t69.5 -25.5q49 -22 92.5 -62.5t51.5 -72.5q7 -26 -10 -48.5t-46 -25.5q-22 -2 -36 4.5t-37 29.5q-43 45 -110.5 60t-134.5 -5t-109 -70q-11 -13 -25.5 -38.5t-14.5 -30.5q20 -31 65.5 -42.5t94.5 -8t114.5 1t110.5 -18.5
q78 -39 120 -117.5t37 -158.5t-55 -128q-46 -45 -103.5 -64t-154.5 -22q-115 -3 -142 6q-63 20 -102 55t-39 71q0 34 13 47q15 15 47.5 12t59.5 -23q41 -30 137.5 -23.5t149.5 43.5q16 11 19 46t-18 60q-38 16 -88.5 22.5t-94.5 5.5t-94 4t-90.5 17t-79.5 46.5t-66 90.5
q-32 75 10 170t134 155q79 53 206 59z" />
    <glyph glyph-name="scaron" unicode="&#x161;" horiz-adv-x="561" 
d="M281.5 705q52.5 2 82.5 -28q27 -27 30.5 -55.5t-17 -46t-56.5 -15.5q-79 4 -105 -45q-8 -15 8 -30t89 -62q135 -88 177 -134.5t42 -109.5q0 -38 -27 -74.5t-68 -53.5q-33 -14 -123.5 -13.5t-140.5 14.5q-149 41 -170 98q-14 36 33 67q17 11 32.5 11t60.5 -12
q67 -18 123 -14l55 3l-83 57q-111 77 -148.5 127.5t-30.5 116.5q9 99 125 164q59 33 111.5 35z" />
    <glyph glyph-name="uni0162" unicode="&#x162;" 
 />
    <glyph glyph-name="uni0163" unicode="&#x163;" 
 />
    <glyph glyph-name="Tcaron" unicode="&#x164;" 
 />
    <glyph glyph-name="tcaron" unicode="&#x165;" 
 />
    <glyph glyph-name="Tbar" unicode="&#x166;" 
 />
    <glyph glyph-name="tbar" unicode="&#x167;" 
 />
    <glyph glyph-name="Utilde" unicode="&#x168;" 
 />
    <glyph glyph-name="utilde" unicode="&#x169;" 
 />
    <glyph glyph-name="Umacron" unicode="&#x16a;" 
 />
    <glyph glyph-name="umacron" unicode="&#x16b;" 
 />
    <glyph glyph-name="Ubreve" unicode="&#x16c;" 
 />
    <glyph glyph-name="ubreve" unicode="&#x16d;" 
 />
    <glyph glyph-name="Uring" unicode="&#x16e;" 
 />
    <glyph glyph-name="uring" unicode="&#x16f;" 
 />
    <glyph glyph-name="Uhungarumlaut" unicode="&#x170;" 
 />
    <glyph glyph-name="uhungarumlaut" unicode="&#x171;" 
 />
    <glyph glyph-name="Uogonek" unicode="&#x172;" 
 />
    <glyph glyph-name="uogonek" unicode="&#x173;" 
 />
    <glyph glyph-name="Wcircumflex" unicode="&#x174;" 
 />
    <glyph glyph-name="wcircumflex" unicode="&#x175;" 
 />
    <glyph glyph-name="Ycircumflex" unicode="&#x176;" 
 />
    <glyph glyph-name="ycircumflex" unicode="&#x177;" 
 />
    <glyph glyph-name="Ydieresis" unicode="&#x178;" horiz-adv-x="606" 
d="M59 852q26 0 42.5 -16t35.5 -59q20 -45 59 -116.5t72 -123.5t37 -47q7 8 33 73q50 131 99 210q24 38 44 58q20 21 35 21q23 0 42 -20t19 -46q0 -35 -50.5 -191t-89.5 -238q-36 -78 -44 -110.5t-12 -116.5q-4 -75 -8.5 -99.5t-18.5 -34.5q-21 -15 -45 -14t-40 18
q-16 19 -28 66q-12 49 -23 141q-8 66 -16.5 92.5t-33.5 61.5q-50 70 -109 215.5t-59 200.5q0 25 19.5 50t39.5 25zM128.5 1024.5q34.5 1.5 51.5 -16.5q17 -16 16 -45t-18 -45q-37 -33 -82 -1q-19 13 -22 38t10 50q10 18 44.5 19.5zM401 1025q24 0 44 -19t20 -42
q0 -27 -17.5 -44.5t-42 -17t-43.5 19.5q-21 21 -21 41q0 19 20.5 40.5t39.5 21.5z" />
    <glyph glyph-name="Zacute" unicode="&#x179;" 
 />
    <glyph glyph-name="zacute" unicode="&#x17a;" 
 />
    <glyph glyph-name="Zdotaccent" unicode="&#x17b;" 
 />
    <glyph glyph-name="zdotaccent" unicode="&#x17c;" 
 />
    <glyph glyph-name="Zcaron" unicode="&#x17d;" horiz-adv-x="726" 
d="M490 822q36 -2 61 -15q76 -41 42 -136q-22 -63 -82.5 -165t-141.5 -212l-73 -100l83 -6q101 -8 181 -14q78 -6 107.5 -21.5t29.5 -51.5q0 -32 -19 -42q-30 -16 -199 -22q-36 -1 -95 -3l-274 -8l-28 28q-26 26 -28 51.5t20 66.5t80 124q244 344 232 363q-6 11 -112 11
q-69 0 -90.5 -3.5t-34.5 -17.5q-36 -43 -108 5q-25 17 -33 29.5t-8 34.5q0 23 8.5 38t27.5 26.5t59 18t94.5 11t141.5 7.5q123 5 159 3z" />
    <glyph glyph-name="zcaron" unicode="&#x17e;" horiz-adv-x="507" 
d="M248 670q78 -4 105.5 -7t41.5 -8.5t30 -23.5q44 -46 24 -121t-113 -216l-54 -82l80 -12q65 -9 90 -24t25 -44q0 -19 -4 -29.5t-13 -20t-32.5 -15.5t-53.5 -11.5t-83 -12.5q-62 -8 -92 -12t-62 -6t-43.5 -1.5t-26 5t-20.5 10t-17 16.5q-25 27 -28.5 49t11.5 53.5t58 91.5
q121 167 148.5 208t24.5 48q-6 9 -63 16q-53 6 -82.5 28t-32.5 56q-3 25 2 37.5t24.5 21t56.5 8t99 -1.5z" />
    <glyph glyph-name="endash" unicode="&#x2013;" horiz-adv-x="353" 
d="M65 409q23 3 125 -1q19 -1 34 -2t25.5 -1.5t19 -2.5t12.5 -2t9 -3t5.5 -3t5 -4l4.5 -4q17 -15 18.5 -39t-13.5 -44q-21 -29 -78.5 -35.5t-144.5 10.5q-64 14 -81.5 44t18.5 66q11 11 18.5 15.5t22.5 5.5z" />
    <glyph glyph-name="emdash" unicode="&#x2014;" horiz-adv-x="658" 
d="M169 407q131 7 281 -1q76 -4 104.5 -7t41 -8.5t21.5 -18.5q16 -25 9.5 -52.5t-30.5 -41.5q-19 -10 -197.5 -14.5t-289.5 2.5q-60 4 -84.5 19.5t-24.5 49.5q0 27 13.5 40.5t47.5 20.5t108 11z" />
    <glyph glyph-name="quoteleft" unicode="&#x2018;" horiz-adv-x="285" 
d="M152 827q19 0 41 -22t22 -42t-32 -61q-38 -48 -28 -56q5 -4 21 -4q27 0 56 -35q55 -66 -17 -131q-61 -56 -139 -8q-36 22 -58.5 72t-16.5 94q9 69 57.5 131t93.5 62z" />
    <glyph glyph-name="quoteright" unicode="&#x2019;" horiz-adv-x="285" 
d="M104 447q-20 0 -42 22t-22 41q0 21 33 62q38 48 28 56q-5 4 -22 4q-26 0 -55 34q-56 66 16 132q61 55 140 7q35 -21 57.5 -71t16.5 -94q-9 -69 -57.5 -131t-92.5 -62z" />
    <glyph glyph-name="quotesinglbase" unicode="&#x201a;" horiz-adv-x="254" 
d="M161 207q64 0 63 -117q0 -63 -19 -113t-63 -104q-24 -29 -38.5 -38t-37.5 -9q-21 0 -33 6t-22 22q-14 20 -9.5 37t41.5 89q51 98 51 145q0 38 18 60t49 22z" />
    <glyph glyph-name="quotedblleft" unicode="&#x201c;" horiz-adv-x="567" 
d="M385 447q-19 0 -41 22t-22 41q0 21 32 62q38 48 29 56q-5 4 -22 4q-26 0 -56 34q-55 66 17 132q61 55 139 7q36 -21 58.5 -71t16.5 -94q-9 -69 -57.5 -131t-93.5 -62zM104 447q-20 0 -42 22t-22 41q0 21 33 62q38 48 28 56q-5 4 -22 4q-26 0 -55 34q-56 66 16 132
q61 55 140 7q35 -21 57.5 -71t16.5 -94q-9 -69 -57.5 -131t-92.5 -62z" />
    <glyph glyph-name="quotedblright" unicode="&#x201d;" horiz-adv-x="567" 
d="M152 827q19 0 41 -22t22 -42t-32 -61q-38 -48 -28 -56q5 -4 21 -4q27 0 56 -35q55 -66 -17 -131q-61 -56 -139 -8q-36 22 -58.5 72t-16.5 94q9 69 57.5 131t93.5 62zM433 827q20 0 42 -22t22 -42t-33 -61q-38 -48 -28 -56q5 -4 22 -4q26 0 55 -35q56 -66 -16 -131
q-61 -56 -140 -8q-35 22 -57.5 72t-16.5 94q9 69 57.5 131t92.5 62z" />
    <glyph glyph-name="quotedblbase" unicode="&#x201e;" horiz-adv-x="443" 
d="M161 207q64 0 63 -117q0 -63 -19 -113t-63 -104q-24 -29 -38.5 -38t-37.5 -9q-21 0 -33 6t-22 22q-14 20 -9.5 37t41.5 89q51 98 51 145q0 38 18 60t49 22zM351 207q63 0 62 -117q0 -63 -19 -113t-63 -104q-24 -29 -38.5 -38t-37.5 -9q-21 0 -33 6t-22 22q-13 20 -9 37
t41 89q51 98 51 145q0 38 18 60t50 22z" />
    <glyph glyph-name="dagger" unicode="&#x2020;" horiz-adv-x="530" 
d="M204 880q22 3 47 -10q23 -12 33.5 -36t25.5 -96q5 -25 15.5 -31t58.5 -11q67 -7 92 -23.5t25 -51.5t-18 -49t-76 -24l-64 -11l3 -262q3 -221 -7 -262q-8 -34 -34 -39q-9 -2 -30 -2q-24 0 -33 7t-20 32q-17 41 -33 154.5t-22 238.5l-7 144l-60 7q-59 8 -80 28
q-18 18 -19.5 39.5t11 38.5t37.5 28.5t56 11.5h48l-7 52q-7 54 9.5 88.5t48.5 38.5z" />
    <glyph glyph-name="bullet" unicode="&#x2022;" horiz-adv-x="212" 
d="M122 420q29 -11 46 -38.5t14 -61.5t-29 -58q-24 -21 -56 -25.5t-55 10.5q-31 21 -39.5 55t7 66.5t49.5 48.5q32 15 63 3z" />
    <glyph glyph-name="ellipsis" unicode="&#x2026;" horiz-adv-x="448" 
d="M82 126q30 -11 38 -45t-18 -60q-16 -14 -37.5 -17t-36.5 7q-31 21 -27.5 59t38.5 54q22 10 43 2zM228 126q30 -11 38.5 -45t-18.5 -60q-15 -14 -36.5 -17t-36.5 7q-32 21 -28 59t39 54q22 10 42 2zM378 126q30 -11 38.5 -45t-18.5 -60q-15 -14 -36.5 -17t-36.5 7
q-32 21 -28 59t39 54q22 10 42 2z" />
    <glyph glyph-name="Euro" unicode="&#x20ac;" horiz-adv-x="760" 
d="M555 811q-74 13 -173 -42t-158 -141l-41 -59l-72 -8q-61 -6 -86 -22t-25 -47q0 -67 89 -67h53v-63q0 -47 -5 -57t-33 -20q-34 -12 -48.5 -29t-14.5 -45q0 -65 91 -53q36 4 47.5 -0.5t32.5 -32.5q28 -37 73 -66.5t94 -43.5q80 -23 177.5 3t145.5 82q25 30 27.5 58.5
t-14 43.5t-47.5 13.5t-65 -24.5q-40 -27 -68 -28q-82 -4 -121 17q-16 8 -16 11q1 5 52 17q69 15 88 48.5t-20 69.5q-18 17 -35.5 19.5t-78.5 -2.5l-88 -8v28q0 36 10 49t37 13q42 1 83 12.5t52 27.5q26 36 2 69t-77 33h-45l20 23q76 85 161 85q36 0 60.5 12t30 30t-1 37
t-31.5 35t-62 22z" />
    <glyph glyph-name="minus" unicode="&#x2212;" horiz-adv-x="353" 
d="M65 409q23 3 125 -1q19 -1 34 -2t25.5 -1.5t19 -2.5t12.5 -2t9 -3t5.5 -3t5 -4l4.5 -4q17 -15 18.5 -39t-13.5 -44q-21 -29 -78.5 -35.5t-144.5 10.5q-64 14 -81.5 44t18.5 66q11 11 18.5 15.5t22.5 5.5z" />
    </font>
</defs>
</svg>
